<mxfile host="Electron" agent="Mozilla/5.0 (Windows NT 10.0; Win64; x64) AppleWebKit/537.36 (KHTML, like Gecko) draw.io/27.0.9 Chrome/134.0.6998.205 Electron/35.4.0 Safari/537.36" version="27.0.9">
  <diagram name="Page-1" id="2Ueibe7qKV-iBgot3rft">
    <mxGraphModel dx="1737" dy="1043" grid="1" gridSize="10" guides="0" tooltips="1" connect="1" arrows="1" fold="1" page="1" pageScale="1" pageWidth="1169" pageHeight="827" math="0" shadow="0">
      <root>
        <mxCell id="0" />
        <mxCell id="1" parent="0" />
        <mxCell id="GJWb4l7mvsMDe13Qzarv-1" value="&lt;span id=&quot;docs-internal-guid-25d94d3e-7fff-79a0-8546-bc3a322b2dae&quot;&gt;&lt;span style=&quot;font-family: Arial, sans-serif; background-color: transparent; font-variant-numeric: normal; font-variant-east-asian: normal; font-variant-alternates: normal; font-variant-position: normal; font-variant-emoji: normal; vertical-align: baseline; white-space-collapse: preserve;&quot;&gt;1- Airline&lt;/span&gt;&lt;/span&gt;" style="rounded=0;whiteSpace=wrap;html=1;fillColor=#fad9d5;strokeColor=#ae4132;fontSize=23;fontStyle=1;flipV=1;" parent="1" vertex="1">
          <mxGeometry x="30" y="20" width="190" height="50" as="geometry" />
        </mxCell>
        <mxCell id="GJWb4l7mvsMDe13Qzarv-2" value="&lt;span id=&quot;docs-internal-guid-bca64e70-7fff-6410-fa68-cc39a1906baf&quot;&gt;&lt;p style=&quot;line-height:1.3800000000000001;margin-top:0pt;margin-bottom:0pt;&quot; dir=&quot;ltr&quot;&gt;&lt;span id=&quot;docs-internal-guid-6c47663c-7fff-149c-9ad4-5077e6dacff5&quot;&gt;&lt;/span&gt;&lt;/p&gt;&lt;p style=&quot;line-height:1.3800000000000001;margin-top:0pt;margin-bottom:0pt;&quot; dir=&quot;ltr&quot;&gt;&lt;span style=&quot;font-family: Arial, sans-serif; color: rgb(0, 0, 0); background-color: transparent; font-style: normal; font-variant: normal; text-decoration: none; vertical-align: baseline; white-space: pre-wrap;&quot;&gt;5 - ITI&lt;/span&gt;&lt;/p&gt;&lt;/span&gt;" style="rounded=0;whiteSpace=wrap;html=1;fillColor=#fad9d5;strokeColor=#ae4132;fontSize=23;fontStyle=1;flipV=1;" parent="1" vertex="1">
          <mxGeometry x="30" y="3340" width="190" height="50" as="geometry" />
        </mxCell>
        <mxCell id="GJWb4l7mvsMDe13Qzarv-3" value="&lt;span id=&quot;docs-internal-guid-9d3600a9-7fff-3b8f-3323-27d9bb90cfeb&quot;&gt;&lt;p style=&quot;line-height:1.3800000000000001;margin-top:0pt;margin-bottom:0pt;&quot; dir=&quot;ltr&quot;&gt;&lt;span style=&quot;font-family: Arial, sans-serif; white-space-collapse: preserve;&quot;&gt;4- Sales&lt;/span&gt;&lt;/p&gt;&lt;/span&gt;" style="rounded=0;whiteSpace=wrap;html=1;fillColor=#fad9d5;strokeColor=#ae4132;fontSize=23;fontStyle=1;flipV=1;" parent="1" vertex="1">
          <mxGeometry x="30" y="2510" width="190" height="50" as="geometry" />
        </mxCell>
        <mxCell id="GJWb4l7mvsMDe13Qzarv-4" value="&lt;span style=&quot;font-family: Arial, sans-serif; white-space-collapse: preserve;&quot;&gt;3 - Musician&amp;nbsp;&lt;/span&gt;" style="rounded=0;whiteSpace=wrap;html=1;fillColor=#fad9d5;strokeColor=#ae4132;fontSize=23;fontStyle=1;flipV=1;" parent="1" vertex="1">
          <mxGeometry x="30" y="1680" width="190" height="50" as="geometry" />
        </mxCell>
        <mxCell id="GJWb4l7mvsMDe13Qzarv-5" value="&lt;span id=&quot;docs-internal-guid-2b360a3f-7fff-0f72-3b89-ed0924b0e69d&quot;&gt;&lt;p style=&quot;line-height:1.3800000000000001;margin-top:0pt;margin-bottom:0pt;&quot; dir=&quot;ltr&quot;&gt;&lt;span style=&quot;font-family: Arial, sans-serif; background-color: transparent; font-variant-numeric: normal; font-variant-east-asian: normal; font-variant-alternates: normal; font-variant-position: normal; font-variant-emoji: normal; vertical-align: baseline; white-space-collapse: preserve;&quot;&gt;2 - Hospital&lt;/span&gt;&lt;/p&gt;&lt;/span&gt;" style="rounded=0;whiteSpace=wrap;html=1;fillColor=#fad9d5;strokeColor=#ae4132;fontSize=23;fontStyle=1;flipV=1;" parent="1" vertex="1">
          <mxGeometry x="30" y="870.0000000000001" width="190" height="50" as="geometry" />
        </mxCell>
        <mxCell id="GJWb4l7mvsMDe13Qzarv-6" value="" style="line;strokeWidth=2;direction=south;html=1;" parent="1" vertex="1">
          <mxGeometry x="457.6" y="1770" width="10" height="40" as="geometry" />
        </mxCell>
        <mxCell id="GJWb4l7mvsMDe13Qzarv-7" value="" style="rounded=0;whiteSpace=wrap;html=1;fillColor=none;" parent="1" vertex="1">
          <mxGeometry x="407.6" y="1770" width="400" height="40" as="geometry" />
        </mxCell>
        <mxCell id="GJWb4l7mvsMDe13Qzarv-8" value="&lt;font style=&quot;font-size: 20px;&quot;&gt;&lt;b style=&quot;&quot;&gt;Musician&lt;/b&gt;&lt;/font&gt;" style="text;html=1;align=center;verticalAlign=middle;resizable=0;points=[];autosize=1;strokeColor=none;fillColor=none;" parent="1" vertex="1">
          <mxGeometry x="401" y="1730" width="110" height="40" as="geometry" />
        </mxCell>
        <mxCell id="GJWb4l7mvsMDe13Qzarv-10" value="&lt;font style=&quot;font-size: 18px;&quot;&gt;ID&lt;/font&gt;" style="text;html=1;align=center;verticalAlign=middle;resizable=0;points=[];autosize=1;strokeColor=none;fillColor=none;" parent="1" vertex="1">
          <mxGeometry x="412.6" y="1770" width="40" height="40" as="geometry" />
        </mxCell>
        <mxCell id="GJWb4l7mvsMDe13Qzarv-11" value="" style="line;strokeWidth=4;html=1;perimeter=backbonePerimeter;points=[];outlineConnect=0;" parent="1" vertex="1">
          <mxGeometry x="417.6" y="1800" width="30" height="10" as="geometry" />
        </mxCell>
        <mxCell id="GJWb4l7mvsMDe13Qzarv-12" value="" style="line;strokeWidth=2;direction=south;html=1;" parent="1" vertex="1">
          <mxGeometry x="537.6" y="1770" width="10" height="40" as="geometry" />
        </mxCell>
        <mxCell id="GJWb4l7mvsMDe13Qzarv-13" value="" style="line;strokeWidth=2;direction=south;html=1;" parent="1" vertex="1">
          <mxGeometry x="717.6" y="1770" width="10" height="40" as="geometry" />
        </mxCell>
        <mxCell id="GJWb4l7mvsMDe13Qzarv-15" value="" style="line;strokeWidth=2;direction=south;html=1;" parent="1" vertex="1">
          <mxGeometry x="572.6" y="1870" width="10" height="40" as="geometry" />
        </mxCell>
        <mxCell id="GJWb4l7mvsMDe13Qzarv-16" value="" style="line;strokeWidth=2;direction=south;html=1;" parent="1" vertex="1">
          <mxGeometry x="652.6" y="1770" width="10" height="40" as="geometry" />
        </mxCell>
        <mxCell id="GJWb4l7mvsMDe13Qzarv-17" value="&lt;font style=&quot;font-size: 18px;&quot;&gt;Name&lt;/font&gt;" style="text;html=1;align=center;verticalAlign=middle;resizable=0;points=[];autosize=1;strokeColor=none;fillColor=none;" parent="1" vertex="1">
          <mxGeometry x="467.6" y="1770" width="70" height="40" as="geometry" />
        </mxCell>
        <mxCell id="GJWb4l7mvsMDe13Qzarv-18" value="&lt;font style=&quot;font-size: 18px;&quot;&gt;City&lt;/font&gt;" style="text;html=1;align=center;verticalAlign=middle;resizable=0;points=[];autosize=1;strokeColor=none;fillColor=none;" parent="1" vertex="1">
          <mxGeometry x="662.6" y="1770" width="50" height="40" as="geometry" />
        </mxCell>
        <mxCell id="GJWb4l7mvsMDe13Qzarv-19" value="&lt;font style=&quot;font-size: 18px;&quot;&gt;Ph_Number&lt;/font&gt;" style="text;html=1;align=center;verticalAlign=middle;resizable=0;points=[];autosize=1;strokeColor=none;fillColor=none;" parent="1" vertex="1">
          <mxGeometry x="537.6" y="1770" width="120" height="40" as="geometry" />
        </mxCell>
        <mxCell id="GJWb4l7mvsMDe13Qzarv-20" value="&lt;font style=&quot;font-size: 18px;&quot;&gt;Street&lt;/font&gt;" style="text;html=1;align=center;verticalAlign=middle;resizable=0;points=[];autosize=1;strokeColor=none;fillColor=none;" parent="1" vertex="1">
          <mxGeometry x="727.6" y="1770" width="70" height="40" as="geometry" />
        </mxCell>
        <mxCell id="GJWb4l7mvsMDe13Qzarv-21" value="" style="line;strokeWidth=2;direction=south;html=1;" parent="1" vertex="1">
          <mxGeometry x="450.1" y="1870" width="10" height="40" as="geometry" />
        </mxCell>
        <mxCell id="GJWb4l7mvsMDe13Qzarv-22" value="" style="rounded=0;whiteSpace=wrap;html=1;fillColor=none;" parent="1" vertex="1">
          <mxGeometry x="405.1" y="1870" width="245.5" height="40" as="geometry" />
        </mxCell>
        <mxCell id="GJWb4l7mvsMDe13Qzarv-23" value="&lt;font style=&quot;font-size: 20px;&quot;&gt;&lt;b style=&quot;&quot;&gt;Album&lt;/b&gt;&lt;/font&gt;" style="text;html=1;align=center;verticalAlign=middle;resizable=0;points=[];autosize=1;strokeColor=none;fillColor=none;" parent="1" vertex="1">
          <mxGeometry x="401.00000000000006" y="1830" width="90" height="40" as="geometry" />
        </mxCell>
        <mxCell id="GJWb4l7mvsMDe13Qzarv-24" value="&lt;font style=&quot;font-size: 18px;&quot;&gt;ID&lt;/font&gt;" style="text;html=1;align=center;verticalAlign=middle;resizable=0;points=[];autosize=1;strokeColor=none;fillColor=none;" parent="1" vertex="1">
          <mxGeometry x="407.6" y="1870" width="40" height="40" as="geometry" />
        </mxCell>
        <mxCell id="GJWb4l7mvsMDe13Qzarv-25" value="" style="line;strokeWidth=4;html=1;perimeter=backbonePerimeter;points=[];outlineConnect=0;" parent="1" vertex="1">
          <mxGeometry x="415.1" y="1900" width="30" height="10" as="geometry" />
        </mxCell>
        <mxCell id="GJWb4l7mvsMDe13Qzarv-26" value="" style="line;strokeWidth=2;direction=south;html=1;" parent="1" vertex="1">
          <mxGeometry x="507.6" y="1870" width="10" height="40" as="geometry" />
        </mxCell>
        <mxCell id="GJWb4l7mvsMDe13Qzarv-29" value="&lt;font style=&quot;font-size: 18px;&quot;&gt;Title&lt;/font&gt;" style="text;html=1;align=center;verticalAlign=middle;resizable=0;points=[];autosize=1;strokeColor=none;fillColor=none;" parent="1" vertex="1">
          <mxGeometry x="452.6" y="1870" width="60" height="40" as="geometry" />
        </mxCell>
        <mxCell id="GJWb4l7mvsMDe13Qzarv-31" value="&lt;span style=&quot;font-size: 18px;&quot;&gt;Date&lt;/span&gt;" style="text;html=1;align=center;verticalAlign=middle;resizable=0;points=[];autosize=1;strokeColor=none;fillColor=none;" parent="1" vertex="1">
          <mxGeometry x="512.6" y="1870" width="60" height="40" as="geometry" />
        </mxCell>
        <mxCell id="GJWb4l7mvsMDe13Qzarv-45" value="" style="line;strokeWidth=2;direction=south;html=1;" parent="1" vertex="1">
          <mxGeometry x="466.1" y="1980" width="10" height="40" as="geometry" />
        </mxCell>
        <mxCell id="GJWb4l7mvsMDe13Qzarv-46" value="" style="rounded=0;whiteSpace=wrap;html=1;fillColor=none;" parent="1" vertex="1">
          <mxGeometry x="406.1" y="1980" width="128" height="40" as="geometry" />
        </mxCell>
        <mxCell id="GJWb4l7mvsMDe13Qzarv-47" value="&lt;font style=&quot;font-size: 20px;&quot;&gt;&lt;b style=&quot;&quot;&gt;Instument&lt;/b&gt;&lt;/font&gt;" style="text;html=1;align=center;verticalAlign=middle;resizable=0;points=[];autosize=1;strokeColor=none;fillColor=none;" parent="1" vertex="1">
          <mxGeometry x="390.6" y="1940" width="120" height="40" as="geometry" />
        </mxCell>
        <mxCell id="GJWb4l7mvsMDe13Qzarv-48" value="&lt;font style=&quot;font-size: 18px;&quot;&gt;Name&lt;/font&gt;" style="text;html=1;align=center;verticalAlign=middle;resizable=0;points=[];autosize=1;strokeColor=none;fillColor=none;" parent="1" vertex="1">
          <mxGeometry x="400.6" y="1980" width="70" height="40" as="geometry" />
        </mxCell>
        <mxCell id="GJWb4l7mvsMDe13Qzarv-49" value="" style="line;strokeWidth=4;html=1;perimeter=backbonePerimeter;points=[];outlineConnect=0;" parent="1" vertex="1">
          <mxGeometry x="412.6" y="2010" width="50" height="10" as="geometry" />
        </mxCell>
        <mxCell id="GJWb4l7mvsMDe13Qzarv-53" value="&lt;font style=&quot;font-size: 18px;&quot;&gt;Key&lt;/font&gt;" style="text;html=1;align=center;verticalAlign=middle;resizable=0;points=[];autosize=1;strokeColor=none;fillColor=none;" parent="1" vertex="1">
          <mxGeometry x="478.6" y="1980" width="50" height="40" as="geometry" />
        </mxCell>
        <mxCell id="GJWb4l7mvsMDe13Qzarv-57" value="" style="line;strokeWidth=2;direction=south;html=1;" parent="1" vertex="1">
          <mxGeometry x="462.1" y="2068" width="10" height="40" as="geometry" />
        </mxCell>
        <mxCell id="GJWb4l7mvsMDe13Qzarv-58" value="" style="rounded=0;whiteSpace=wrap;html=1;fillColor=none;" parent="1" vertex="1">
          <mxGeometry x="408.35" y="2068" width="139.25" height="40" as="geometry" />
        </mxCell>
        <mxCell id="GJWb4l7mvsMDe13Qzarv-59" value="&lt;font style=&quot;font-size: 20px;&quot;&gt;&lt;b style=&quot;&quot;&gt;Song&lt;/b&gt;&lt;/font&gt;" style="text;html=1;align=center;verticalAlign=middle;resizable=0;points=[];autosize=1;strokeColor=none;fillColor=none;" parent="1" vertex="1">
          <mxGeometry x="402.1" y="2028" width="70" height="40" as="geometry" />
        </mxCell>
        <mxCell id="GJWb4l7mvsMDe13Qzarv-60" value="&lt;font style=&quot;font-size: 18px;&quot;&gt;Title&lt;/font&gt;" style="text;html=1;align=center;verticalAlign=middle;resizable=0;points=[];autosize=1;strokeColor=none;fillColor=none;" parent="1" vertex="1">
          <mxGeometry x="407.1" y="2068" width="60" height="40" as="geometry" />
        </mxCell>
        <mxCell id="GJWb4l7mvsMDe13Qzarv-61" value="" style="line;strokeWidth=4;html=1;perimeter=backbonePerimeter;points=[];outlineConnect=0;" parent="1" vertex="1">
          <mxGeometry x="422.1" y="2098" width="30" height="10" as="geometry" />
        </mxCell>
        <mxCell id="GJWb4l7mvsMDe13Qzarv-65" value="&lt;font style=&quot;font-size: 18px;&quot;&gt;Author&lt;/font&gt;" style="text;html=1;align=center;verticalAlign=middle;resizable=0;points=[];autosize=1;strokeColor=none;fillColor=none;" parent="1" vertex="1">
          <mxGeometry x="466.35" y="2068" width="80" height="40" as="geometry" />
        </mxCell>
        <mxCell id="GJWb4l7mvsMDe13Qzarv-72" value="&lt;font style=&quot;font-size: 18px;&quot;&gt;ID_M&lt;/font&gt;" style="text;html=1;align=center;verticalAlign=middle;resizable=0;points=[];autosize=1;strokeColor=none;fillColor=none;" parent="1" vertex="1">
          <mxGeometry x="577.85" y="1870" width="70" height="40" as="geometry" />
        </mxCell>
        <mxCell id="GJWb4l7mvsMDe13Qzarv-73" value="" style="line;strokeWidth=2;html=1;dashed=1;" parent="1" vertex="1">
          <mxGeometry x="590.6" y="1900" width="44.5" height="10" as="geometry" />
        </mxCell>
        <mxCell id="GJWb4l7mvsMDe13Qzarv-76" value="" style="edgeStyle=elbowEdgeStyle;elbow=vertical;endArrow=classic;html=1;curved=0;rounded=0;endSize=8;startSize=8;entryX=0.533;entryY=0.952;entryDx=0;entryDy=0;entryPerimeter=0;" parent="1" source="GJWb4l7mvsMDe13Qzarv-72" target="GJWb4l7mvsMDe13Qzarv-10" edge="1">
          <mxGeometry width="50" height="50" relative="1" as="geometry">
            <mxPoint x="653.1" y="1840" as="sourcePoint" />
            <mxPoint x="703.1" y="1790" as="targetPoint" />
            <Array as="points">
              <mxPoint x="520" y="1830" />
            </Array>
          </mxGeometry>
        </mxCell>
        <mxCell id="GJWb4l7mvsMDe13Qzarv-77" value="" style="line;strokeWidth=2;direction=south;html=1;" parent="1" vertex="1">
          <mxGeometry x="480.6" y="2170" width="10" height="40" as="geometry" />
        </mxCell>
        <mxCell id="GJWb4l7mvsMDe13Qzarv-78" value="" style="rounded=0;whiteSpace=wrap;html=1;fillColor=none;" parent="1" vertex="1">
          <mxGeometry x="405.6" y="2170" width="160.5" height="40" as="geometry" />
        </mxCell>
        <mxCell id="GJWb4l7mvsMDe13Qzarv-79" value="&lt;font style=&quot;font-size: 20px;&quot;&gt;&lt;b style=&quot;&quot;&gt;Album_Song&lt;/b&gt;&lt;/font&gt;" style="text;html=1;align=center;verticalAlign=middle;resizable=0;points=[];autosize=1;strokeColor=none;fillColor=none;" parent="1" vertex="1">
          <mxGeometry x="392.6" y="2130" width="150" height="40" as="geometry" />
        </mxCell>
        <mxCell id="GJWb4l7mvsMDe13Qzarv-80" value="&lt;font style=&quot;font-size: 18px;&quot;&gt;Title_S&lt;/font&gt;" style="text;html=1;align=center;verticalAlign=middle;resizable=0;points=[];autosize=1;strokeColor=none;fillColor=none;" parent="1" vertex="1">
          <mxGeometry x="403.1" y="2170" width="80" height="40" as="geometry" />
        </mxCell>
        <mxCell id="GJWb4l7mvsMDe13Qzarv-85" value="&lt;font style=&quot;font-size: 18px;&quot;&gt;ID_A&lt;/font&gt;" style="text;html=1;align=center;verticalAlign=middle;resizable=0;points=[];autosize=1;strokeColor=none;fillColor=none;" parent="1" vertex="1">
          <mxGeometry x="490.6" y="2170" width="60" height="40" as="geometry" />
        </mxCell>
        <mxCell id="GJWb4l7mvsMDe13Qzarv-86" value="" style="line;strokeWidth=2;html=1;dashed=1;" parent="1" vertex="1">
          <mxGeometry x="417.6" y="2200" width="60" height="10" as="geometry" />
        </mxCell>
        <mxCell id="GJWb4l7mvsMDe13Qzarv-87" value="" style="line;strokeWidth=2;html=1;dashed=1;" parent="1" vertex="1">
          <mxGeometry x="500.6" y="2200" width="44.5" height="10" as="geometry" />
        </mxCell>
        <mxCell id="GJWb4l7mvsMDe13Qzarv-91" value="" style="edgeStyle=elbowEdgeStyle;elbow=vertical;endArrow=classic;html=1;curved=0;rounded=0;endSize=8;startSize=8;" parent="1" source="GJWb4l7mvsMDe13Qzarv-80" target="GJWb4l7mvsMDe13Qzarv-60" edge="1">
          <mxGeometry width="50" height="50" relative="1" as="geometry">
            <mxPoint x="987.8499999999999" y="2114" as="sourcePoint" />
            <mxPoint x="347.85" y="2134" as="targetPoint" />
            <Array as="points">
              <mxPoint x="377.85" y="2284" />
            </Array>
          </mxGeometry>
        </mxCell>
        <mxCell id="GJWb4l7mvsMDe13Qzarv-97" value="" style="line;strokeWidth=4;html=1;perimeter=backbonePerimeter;points=[];outlineConnect=0;" parent="1" vertex="1">
          <mxGeometry x="407.6" y="2220" width="142.4" height="10" as="geometry" />
        </mxCell>
        <mxCell id="GJWb4l7mvsMDe13Qzarv-98" value="" style="line;strokeWidth=2;direction=south;html=1;" parent="1" vertex="1">
          <mxGeometry x="458" y="2280" width="10" height="40" as="geometry" />
        </mxCell>
        <mxCell id="GJWb4l7mvsMDe13Qzarv-99" value="" style="rounded=0;whiteSpace=wrap;html=1;fillColor=none;" parent="1" vertex="1">
          <mxGeometry x="398.70000000000005" y="2280" width="148.9" height="40" as="geometry" />
        </mxCell>
        <mxCell id="GJWb4l7mvsMDe13Qzarv-100" value="&lt;font style=&quot;font-size: 20px;&quot;&gt;&lt;b style=&quot;&quot;&gt;Musician_Song&lt;/b&gt;&lt;/font&gt;" style="text;html=1;align=center;verticalAlign=middle;resizable=0;points=[];autosize=1;strokeColor=none;fillColor=none;" parent="1" vertex="1">
          <mxGeometry x="390.6" y="2240" width="170" height="40" as="geometry" />
        </mxCell>
        <mxCell id="GJWb4l7mvsMDe13Qzarv-110" value="" style="edgeStyle=segmentEdgeStyle;endArrow=classic;html=1;curved=0;rounded=0;endSize=8;startSize=8;exitX=1;exitY=0.5;exitDx=0;exitDy=0;entryX=0.634;entryY=1.001;entryDx=0;entryDy=0;entryPerimeter=0;" parent="1" source="GJWb4l7mvsMDe13Qzarv-78" target="GJWb4l7mvsMDe13Qzarv-24" edge="1">
          <mxGeometry width="50" height="50" relative="1" as="geometry">
            <mxPoint x="663.1" y="2070" as="sourcePoint" />
            <mxPoint x="713.1" y="2020" as="targetPoint" />
            <Array as="points">
              <mxPoint x="933" y="2190" />
              <mxPoint x="933" y="1940" />
              <mxPoint x="433" y="1940" />
            </Array>
          </mxGeometry>
        </mxCell>
        <mxCell id="GJWb4l7mvsMDe13Qzarv-111" value="" style="line;strokeWidth=2;direction=south;html=1;" parent="1" vertex="1">
          <mxGeometry x="455.75" y="2380" width="10" height="40" as="geometry" />
        </mxCell>
        <mxCell id="GJWb4l7mvsMDe13Qzarv-112" value="" style="rounded=0;whiteSpace=wrap;html=1;fillColor=none;" parent="1" vertex="1">
          <mxGeometry x="401" y="2380" width="160" height="40" as="geometry" />
        </mxCell>
        <mxCell id="GJWb4l7mvsMDe13Qzarv-113" value="&lt;font style=&quot;font-size: 20px;&quot;&gt;&lt;b style=&quot;&quot;&gt;Musician_Instument&lt;/b&gt;&lt;/font&gt;" style="text;html=1;align=center;verticalAlign=middle;resizable=0;points=[];autosize=1;strokeColor=none;fillColor=none;" parent="1" vertex="1">
          <mxGeometry x="382.6" y="2340" width="220" height="40" as="geometry" />
        </mxCell>
        <mxCell id="GJWb4l7mvsMDe13Qzarv-123" value="&lt;font style=&quot;font-size: 18px;&quot;&gt;ID_M&lt;/font&gt;" style="text;html=1;align=center;verticalAlign=middle;resizable=0;points=[];autosize=1;strokeColor=none;fillColor=none;" parent="1" vertex="1">
          <mxGeometry x="392.6" y="2280" width="70" height="40" as="geometry" />
        </mxCell>
        <mxCell id="GJWb4l7mvsMDe13Qzarv-124" value="" style="line;strokeWidth=2;html=1;dashed=1;" parent="1" vertex="1">
          <mxGeometry x="403.1" y="2310" width="50" height="10" as="geometry" />
        </mxCell>
        <mxCell id="GJWb4l7mvsMDe13Qzarv-126" value="&lt;span style=&quot;font-size: 18px;&quot;&gt;Title_S&lt;/span&gt;" style="text;html=1;align=center;verticalAlign=middle;resizable=0;points=[];autosize=1;strokeColor=none;fillColor=none;" parent="1" vertex="1">
          <mxGeometry x="465.75" y="2280" width="80" height="40" as="geometry" />
        </mxCell>
        <mxCell id="GJWb4l7mvsMDe13Qzarv-127" value="" style="line;strokeWidth=2;html=1;dashed=1;" parent="1" vertex="1">
          <mxGeometry x="475.75" y="2310" width="62.4" height="10" as="geometry" />
        </mxCell>
        <mxCell id="GJWb4l7mvsMDe13Qzarv-131" value="&lt;font style=&quot;font-size: 18px;&quot;&gt;ID_M&lt;/font&gt;" style="text;html=1;align=center;verticalAlign=middle;resizable=0;points=[];autosize=1;strokeColor=none;fillColor=none;" parent="1" vertex="1">
          <mxGeometry x="393.1" y="2380" width="70" height="40" as="geometry" />
        </mxCell>
        <mxCell id="GJWb4l7mvsMDe13Qzarv-132" value="" style="line;strokeWidth=2;html=1;dashed=1;" parent="1" vertex="1">
          <mxGeometry x="405.1" y="2408" width="50" height="10" as="geometry" />
        </mxCell>
        <mxCell id="GJWb4l7mvsMDe13Qzarv-133" value="&lt;span style=&quot;color: rgba(0, 0, 0, 0); font-family: monospace; font-size: 0px; text-align: start;&quot;&gt;%3CmxGraphModel%3E%3Croot%3E%3CmxCell%20id%3D%220%22%2F%3E%3CmxCell%20id%3D%221%22%20parent%3D%220%22%2F%3E%3CmxCell%20id%3D%222%22%20value%3D%22%26lt%3Bfont%20style%3D%26quot%3Bfont-size%3A%2018px%3B%26quot%3B%26gt%3BName%26lt%3B%2Ffont%26gt%3B%22%20style%3D%22text%3Bhtml%3D1%3Balign%3Dcenter%3BverticalAlign%3Dmiddle%3Bresizable%3D0%3Bpoints%3D%5B%5D%3Bautosize%3D1%3BstrokeColor%3Dnone%3BfillColor%3Dnone%3B%22%20vertex%3D%221%22%20parent%3D%221%22%3E%3CmxGeometry%20x%3D%22167.6%22%20y%3D%221980%22%20width%3D%2270%22%20height%3D%2240%22%20as%3D%22geometry%22%2F%3E%3C%2FmxCell%3E%3C%2Froot%3E%3C%2FmxGraphModel%3E&lt;/span&gt;&lt;span style=&quot;color: rgba(0, 0, 0, 0); font-family: monospace; font-size: 0px; text-align: start;&quot;&gt;%3CmxGraphModel%3E%3Croot%3E%3CmxCell%20id%3D%220%22%2F%3E%3CmxCell%20id%3D%221%22%20parent%3D%220%22%2F%3E%3CmxCell%20id%3D%222%22%20value%3D%22%26lt%3Bfont%20style%3D%26quot%3Bfont-size%3A%2018px%3B%26quot%3B%26gt%3BName%26lt%3B%2Ffont%26gt%3B%22%20style%3D%22text%3Bhtml%3D1%3Balign%3Dcenter%3BverticalAlign%3Dmiddle%3Bresizable%3D0%3Bpoints%3D%5B%5D%3Bautosize%3D1%3BstrokeColor%3Dnone%3BfillColor%3Dnone%3B%22%20vertex%3D%221%22%20parent%3D%221%22%3E%3CmxGeometry%20x%3D%22167.6%22%20y%3D%221980%22%20width%3D%2270%22%20height%3D%2240%22%20as%3D%22geometry%22%2F%3E%3C%2FmxCell%3E%3C%2Froot%3E%3C%2FmxGraphModel%3ENa&lt;/span&gt;" style="text;html=1;align=center;verticalAlign=middle;resizable=0;points=[];autosize=1;strokeColor=none;fillColor=none;" parent="1" vertex="1">
          <mxGeometry x="541" y="2388" width="20" height="30" as="geometry" />
        </mxCell>
        <mxCell id="GJWb4l7mvsMDe13Qzarv-134" value="&lt;font style=&quot;font-size: 18px;&quot;&gt;Name_Ins&lt;/font&gt;" style="text;html=1;align=center;verticalAlign=middle;resizable=0;points=[];autosize=1;strokeColor=none;fillColor=none;" parent="1" vertex="1">
          <mxGeometry x="456.1" y="2380" width="110" height="40" as="geometry" />
        </mxCell>
        <mxCell id="GJWb4l7mvsMDe13Qzarv-135" value="" style="line;strokeWidth=2;html=1;dashed=1;" parent="1" vertex="1">
          <mxGeometry x="470.9" y="2408" width="83.4" height="10" as="geometry" />
        </mxCell>
        <mxCell id="GJWb4l7mvsMDe13Qzarv-136" value="" style="edgeStyle=orthogonalEdgeStyle;elbow=vertical;endArrow=classic;html=1;rounded=0;endSize=8;startSize=8;entryX=0;entryY=0.5;entryDx=0;entryDy=0;" parent="1" target="GJWb4l7mvsMDe13Qzarv-7" edge="1">
          <mxGeometry width="50" height="50" relative="1" as="geometry">
            <mxPoint x="421" y="2321" as="sourcePoint" />
            <mxPoint x="311" y="1790" as="targetPoint" />
            <Array as="points">
              <mxPoint x="421" y="2340" />
              <mxPoint x="991" y="2340" />
              <mxPoint x="991" y="1710" />
              <mxPoint x="351" y="1710" />
              <mxPoint x="351" y="1790" />
            </Array>
          </mxGeometry>
        </mxCell>
        <mxCell id="GJWb4l7mvsMDe13Qzarv-138" value="" style="edgeStyle=orthogonalEdgeStyle;elbow=vertical;endArrow=classic;html=1;rounded=0;endSize=8;startSize=8;exitX=0.43;exitY=1.006;exitDx=0;exitDy=0;exitPerimeter=0;entryX=0;entryY=0.5;entryDx=0;entryDy=0;" parent="1" source="GJWb4l7mvsMDe13Qzarv-134" target="GJWb4l7mvsMDe13Qzarv-46" edge="1">
          <mxGeometry width="50" height="50" relative="1" as="geometry">
            <mxPoint x="502.56000000000006" y="2426.52" as="sourcePoint" />
            <mxPoint x="405.70000000000005" y="2000" as="targetPoint" />
            <Array as="points">
              <mxPoint x="503" y="2460" />
              <mxPoint x="341" y="2460" />
              <mxPoint x="341" y="2000" />
            </Array>
          </mxGeometry>
        </mxCell>
        <mxCell id="GJWb4l7mvsMDe13Qzarv-139" value="" style="edgeStyle=orthogonalEdgeStyle;elbow=vertical;endArrow=classic;html=1;rounded=0;endSize=8;startSize=8;exitX=0.178;exitY=0.984;exitDx=0;exitDy=0;exitPerimeter=0;entryX=0;entryY=0.75;entryDx=0;entryDy=0;" parent="1" source="GJWb4l7mvsMDe13Qzarv-112" target="GJWb4l7mvsMDe13Qzarv-7" edge="1">
          <mxGeometry width="50" height="50" relative="1" as="geometry">
            <mxPoint x="429" y="2430" as="sourcePoint" />
            <mxPoint x="279.5454767400568" y="1970" as="targetPoint" />
            <Array as="points">
              <mxPoint x="430" y="2440" />
              <mxPoint x="280" y="2440" />
              <mxPoint x="280" y="1800" />
            </Array>
          </mxGeometry>
        </mxCell>
        <mxCell id="GJWb4l7mvsMDe13Qzarv-142" value="" style="edgeStyle=orthogonalEdgeStyle;elbow=vertical;endArrow=classic;html=1;rounded=0;endSize=8;startSize=8;exitX=1;exitY=0.5;exitDx=0;exitDy=0;entryX=0.482;entryY=0.987;entryDx=0;entryDy=0;entryPerimeter=0;" parent="1" source="GJWb4l7mvsMDe13Qzarv-99" target="GJWb4l7mvsMDe13Qzarv-60" edge="1">
          <mxGeometry width="50" height="50" relative="1" as="geometry">
            <mxPoint x="630" y="2150" as="sourcePoint" />
            <mxPoint x="680" y="2100" as="targetPoint" />
            <Array as="points">
              <mxPoint x="640" y="2300" />
              <mxPoint x="640" y="2130" />
              <mxPoint x="436" y="2130" />
            </Array>
          </mxGeometry>
        </mxCell>
        <mxCell id="GJWb4l7mvsMDe13Qzarv-143" value="" style="line;strokeWidth=2;direction=south;html=1;" parent="1" vertex="1">
          <mxGeometry x="449.40000000000003" y="2640" width="10" height="40" as="geometry" />
        </mxCell>
        <mxCell id="GJWb4l7mvsMDe13Qzarv-144" value="" style="rounded=0;whiteSpace=wrap;html=1;fillColor=none;" parent="1" vertex="1">
          <mxGeometry x="364.3" y="2640" width="275.7" height="40" as="geometry" />
        </mxCell>
        <mxCell id="GJWb4l7mvsMDe13Qzarv-145" value="&lt;font style=&quot;font-size: 20px;&quot;&gt;&lt;b style=&quot;&quot;&gt;Sales Office&lt;/b&gt;&lt;/font&gt;" style="text;html=1;align=center;verticalAlign=middle;resizable=0;points=[];autosize=1;strokeColor=none;fillColor=none;" parent="1" vertex="1">
          <mxGeometry x="348.1" y="2600" width="140" height="40" as="geometry" />
        </mxCell>
        <mxCell id="GJWb4l7mvsMDe13Qzarv-146" value="&lt;font style=&quot;font-size: 18px;&quot;&gt;Number&lt;/font&gt;" style="text;html=1;align=center;verticalAlign=middle;resizable=0;points=[];autosize=1;strokeColor=none;fillColor=none;" parent="1" vertex="1">
          <mxGeometry x="364.3" y="2640" width="90" height="40" as="geometry" />
        </mxCell>
        <mxCell id="GJWb4l7mvsMDe13Qzarv-147" value="" style="line;strokeWidth=4;html=1;perimeter=backbonePerimeter;points=[];outlineConnect=0;" parent="1" vertex="1">
          <mxGeometry x="377.6" y="2670" width="70" height="10" as="geometry" />
        </mxCell>
        <mxCell id="GJWb4l7mvsMDe13Qzarv-151" value="&lt;font style=&quot;font-size: 18px;&quot;&gt;Location&lt;/font&gt;" style="text;html=1;align=center;verticalAlign=middle;resizable=0;points=[];autosize=1;strokeColor=none;fillColor=none;" parent="1" vertex="1">
          <mxGeometry x="447.6" y="2640" width="90" height="40" as="geometry" />
        </mxCell>
        <mxCell id="GJWb4l7mvsMDe13Qzarv-167" value="" style="line;strokeWidth=2;direction=south;html=1;" parent="1" vertex="1">
          <mxGeometry x="414.30000000000007" y="2740" width="10" height="40" as="geometry" />
        </mxCell>
        <mxCell id="GJWb4l7mvsMDe13Qzarv-168" value="" style="rounded=0;whiteSpace=wrap;html=1;fillColor=none;" parent="1" vertex="1">
          <mxGeometry x="364.3" y="2740" width="255.7" height="40" as="geometry" />
        </mxCell>
        <mxCell id="GJWb4l7mvsMDe13Qzarv-169" value="&lt;font style=&quot;font-size: 20px;&quot;&gt;&lt;b style=&quot;&quot;&gt;Employee&lt;/b&gt;&lt;/font&gt;" style="text;html=1;align=center;verticalAlign=middle;resizable=0;points=[];autosize=1;strokeColor=none;fillColor=none;" parent="1" vertex="1">
          <mxGeometry x="342.1" y="2700" width="120" height="40" as="geometry" />
        </mxCell>
        <mxCell id="GJWb4l7mvsMDe13Qzarv-170" value="&lt;font style=&quot;font-size: 18px;&quot;&gt;ID&lt;/font&gt;" style="text;html=1;align=center;verticalAlign=middle;resizable=0;points=[];autosize=1;strokeColor=none;fillColor=none;" parent="1" vertex="1">
          <mxGeometry x="369.30000000000007" y="2740" width="40" height="40" as="geometry" />
        </mxCell>
        <mxCell id="GJWb4l7mvsMDe13Qzarv-171" value="" style="line;strokeWidth=4;html=1;perimeter=backbonePerimeter;points=[];outlineConnect=0;" parent="1" vertex="1">
          <mxGeometry x="374.30000000000007" y="2770" width="30" height="10" as="geometry" />
        </mxCell>
        <mxCell id="GJWb4l7mvsMDe13Qzarv-175" value="&lt;font style=&quot;font-size: 18px;&quot;&gt;Name&lt;/font&gt;" style="text;html=1;align=center;verticalAlign=middle;resizable=0;points=[];autosize=1;strokeColor=none;fillColor=none;" parent="1" vertex="1">
          <mxGeometry x="414.30000000000007" y="2740" width="70" height="40" as="geometry" />
        </mxCell>
        <mxCell id="GJWb4l7mvsMDe13Qzarv-180" value="" style="line;strokeWidth=2;direction=south;html=1;" parent="1" vertex="1">
          <mxGeometry x="414.3" y="2840" width="10" height="40" as="geometry" />
        </mxCell>
        <mxCell id="GJWb4l7mvsMDe13Qzarv-181" value="" style="rounded=0;whiteSpace=wrap;html=1;fillColor=none;" parent="1" vertex="1">
          <mxGeometry x="364.3" y="2840" width="475.7" height="40" as="geometry" />
        </mxCell>
        <mxCell id="GJWb4l7mvsMDe13Qzarv-182" value="&lt;font style=&quot;font-size: 20px;&quot;&gt;&lt;b style=&quot;&quot;&gt;Property&lt;/b&gt;&lt;/font&gt;" style="text;html=1;align=center;verticalAlign=middle;resizable=0;points=[];autosize=1;strokeColor=none;fillColor=none;" parent="1" vertex="1">
          <mxGeometry x="339.29999999999995" y="2800" width="110" height="40" as="geometry" />
        </mxCell>
        <mxCell id="GJWb4l7mvsMDe13Qzarv-183" value="&lt;font style=&quot;font-size: 18px;&quot;&gt;ID&lt;/font&gt;" style="text;html=1;align=center;verticalAlign=middle;resizable=0;points=[];autosize=1;strokeColor=none;fillColor=none;" parent="1" vertex="1">
          <mxGeometry x="369.3" y="2840" width="40" height="40" as="geometry" />
        </mxCell>
        <mxCell id="GJWb4l7mvsMDe13Qzarv-184" value="" style="line;strokeWidth=4;html=1;perimeter=backbonePerimeter;points=[];outlineConnect=0;" parent="1" vertex="1">
          <mxGeometry x="374.3" y="2870" width="30" height="10" as="geometry" />
        </mxCell>
        <mxCell id="GJWb4l7mvsMDe13Qzarv-185" value="" style="line;strokeWidth=2;direction=south;html=1;" parent="1" vertex="1">
          <mxGeometry x="501.5" y="2840" width="10" height="40" as="geometry" />
        </mxCell>
        <mxCell id="GJWb4l7mvsMDe13Qzarv-186" value="" style="line;strokeWidth=2;direction=south;html=1;" parent="1" vertex="1">
          <mxGeometry x="629.4000000000001" y="2840" width="10" height="40" as="geometry" />
        </mxCell>
        <mxCell id="GJWb4l7mvsMDe13Qzarv-187" value="" style="line;strokeWidth=2;direction=south;html=1;" parent="1" vertex="1">
          <mxGeometry x="569.0000000000001" y="2840" width="10" height="40" as="geometry" />
        </mxCell>
        <mxCell id="GJWb4l7mvsMDe13Qzarv-188" value="&lt;font style=&quot;font-size: 18px;&quot;&gt;Address&lt;/font&gt;" style="text;html=1;align=center;verticalAlign=middle;resizable=0;points=[];autosize=1;strokeColor=none;fillColor=none;" parent="1" vertex="1">
          <mxGeometry x="420" y="2840" width="90" height="40" as="geometry" />
        </mxCell>
        <mxCell id="GJWb4l7mvsMDe13Qzarv-189" value="&lt;font style=&quot;font-size: 18px;&quot;&gt;City&lt;/font&gt;" style="text;html=1;align=center;verticalAlign=middle;resizable=0;points=[];autosize=1;strokeColor=none;fillColor=none;" parent="1" vertex="1">
          <mxGeometry x="579.4000000000001" y="2840" width="50" height="40" as="geometry" />
        </mxCell>
        <mxCell id="GJWb4l7mvsMDe13Qzarv-190" value="&lt;span style=&quot;font-size: 18px;&quot;&gt;state&lt;/span&gt;" style="text;html=1;align=center;verticalAlign=middle;resizable=0;points=[];autosize=1;strokeColor=none;fillColor=none;" parent="1" vertex="1">
          <mxGeometry x="507.1" y="2840" width="60" height="40" as="geometry" />
        </mxCell>
        <mxCell id="GJWb4l7mvsMDe13Qzarv-191" value="&lt;font style=&quot;font-size: 18px;&quot;&gt;code&lt;/font&gt;" style="text;html=1;align=center;verticalAlign=middle;resizable=0;points=[];autosize=1;strokeColor=none;fillColor=none;" parent="1" vertex="1">
          <mxGeometry x="638.4000000000001" y="2840" width="60" height="40" as="geometry" />
        </mxCell>
        <mxCell id="GJWb4l7mvsMDe13Qzarv-192" value="" style="line;strokeWidth=2;direction=south;html=1;" parent="1" vertex="1">
          <mxGeometry x="414.3" y="2940" width="10" height="40" as="geometry" />
        </mxCell>
        <mxCell id="GJWb4l7mvsMDe13Qzarv-193" value="" style="rounded=0;whiteSpace=wrap;html=1;fillColor=none;" parent="1" vertex="1">
          <mxGeometry x="364.3" y="2940" width="135.7" height="40" as="geometry" />
        </mxCell>
        <mxCell id="GJWb4l7mvsMDe13Qzarv-194" value="&lt;font style=&quot;font-size: 20px;&quot;&gt;&lt;b style=&quot;&quot;&gt;Owner&lt;/b&gt;&lt;/font&gt;" style="text;html=1;align=center;verticalAlign=middle;resizable=0;points=[];autosize=1;strokeColor=none;fillColor=none;" parent="1" vertex="1">
          <mxGeometry x="339.29999999999995" y="2900" width="90" height="40" as="geometry" />
        </mxCell>
        <mxCell id="GJWb4l7mvsMDe13Qzarv-195" value="&lt;font style=&quot;font-size: 18px;&quot;&gt;ID&lt;/font&gt;" style="text;html=1;align=center;verticalAlign=middle;resizable=0;points=[];autosize=1;strokeColor=none;fillColor=none;" parent="1" vertex="1">
          <mxGeometry x="369.3" y="2940" width="40" height="40" as="geometry" />
        </mxCell>
        <mxCell id="GJWb4l7mvsMDe13Qzarv-196" value="" style="line;strokeWidth=4;html=1;perimeter=backbonePerimeter;points=[];outlineConnect=0;" parent="1" vertex="1">
          <mxGeometry x="374.3" y="2970" width="30" height="10" as="geometry" />
        </mxCell>
        <mxCell id="GJWb4l7mvsMDe13Qzarv-200" value="&lt;font style=&quot;font-size: 18px;&quot;&gt;Name&lt;/font&gt;" style="text;html=1;align=center;verticalAlign=middle;resizable=0;points=[];autosize=1;strokeColor=none;fillColor=none;" parent="1" vertex="1">
          <mxGeometry x="427.6" y="2940" width="70" height="40" as="geometry" />
        </mxCell>
        <mxCell id="GJWb4l7mvsMDe13Qzarv-204" value="" style="line;strokeWidth=2;direction=south;html=1;" parent="1" vertex="1">
          <mxGeometry x="530.6" y="2640" width="10" height="40" as="geometry" />
        </mxCell>
        <mxCell id="GJWb4l7mvsMDe13Qzarv-206" value="&lt;font style=&quot;font-size: 18px;&quot;&gt;ID_EMP&lt;/font&gt;" style="text;html=1;align=center;verticalAlign=middle;resizable=0;points=[];autosize=1;strokeColor=none;fillColor=none;" parent="1" vertex="1">
          <mxGeometry x="542.6" y="2640" width="90" height="40" as="geometry" />
        </mxCell>
        <mxCell id="GJWb4l7mvsMDe13Qzarv-207" value="" style="line;strokeWidth=2;html=1;dashed=1;" parent="1" vertex="1">
          <mxGeometry x="549.2" y="2670" width="83.4" height="10" as="geometry" />
        </mxCell>
        <mxCell id="GJWb4l7mvsMDe13Qzarv-208" value="" style="edgeStyle=orthogonalEdgeStyle;elbow=vertical;endArrow=classic;html=1;rounded=0;endSize=8;startSize=8;entryX=1;entryY=0.5;entryDx=0;entryDy=0;" parent="1" target="GJWb4l7mvsMDe13Qzarv-144" edge="1">
          <mxGeometry width="50" height="50" relative="1" as="geometry">
            <mxPoint x="385" y="2780" as="sourcePoint" />
            <mxPoint x="710" y="2660" as="targetPoint" />
            <Array as="points">
              <mxPoint x="385" y="2790" />
              <mxPoint x="720" y="2790" />
              <mxPoint x="720" y="2660" />
            </Array>
          </mxGeometry>
        </mxCell>
        <mxCell id="GJWb4l7mvsMDe13Qzarv-209" value="&lt;font style=&quot;font-size: 18px;&quot;&gt;Number_Sales&lt;/font&gt;" style="text;html=1;align=center;verticalAlign=middle;resizable=0;points=[];autosize=1;strokeColor=none;fillColor=none;" parent="1" vertex="1">
          <mxGeometry x="481" y="2740" width="140" height="40" as="geometry" />
        </mxCell>
        <mxCell id="GJWb4l7mvsMDe13Qzarv-210" value="" style="line;strokeWidth=2;direction=south;html=1;" parent="1" vertex="1">
          <mxGeometry x="477.6" y="2740" width="10" height="40" as="geometry" />
        </mxCell>
        <mxCell id="GJWb4l7mvsMDe13Qzarv-212" value="" style="line;strokeWidth=2;html=1;dashed=1;" parent="1" vertex="1">
          <mxGeometry x="489.65" y="2770" width="120.35" height="10" as="geometry" />
        </mxCell>
        <mxCell id="GJWb4l7mvsMDe13Qzarv-213" value="" style="line;strokeWidth=2;direction=south;html=1;" parent="1" vertex="1">
          <mxGeometry x="697.6" y="2840" width="10" height="40" as="geometry" />
        </mxCell>
        <mxCell id="GJWb4l7mvsMDe13Qzarv-214" value="&lt;font style=&quot;font-size: 18px;&quot;&gt;Number_Sales&lt;/font&gt;" style="text;html=1;align=center;verticalAlign=middle;resizable=0;points=[];autosize=1;strokeColor=none;fillColor=none;" parent="1" vertex="1">
          <mxGeometry x="700" y="2840" width="140" height="40" as="geometry" />
        </mxCell>
        <mxCell id="GJWb4l7mvsMDe13Qzarv-215" value="" style="line;strokeWidth=2;html=1;dashed=1;" parent="1" vertex="1">
          <mxGeometry x="709.8299999999999" y="2870" width="120.35" height="10" as="geometry" />
        </mxCell>
        <mxCell id="GJWb4l7mvsMDe13Qzarv-216" value="" style="edgeStyle=orthogonalEdgeStyle;elbow=vertical;endArrow=classic;html=1;rounded=0;endSize=8;startSize=8;" parent="1" edge="1">
          <mxGeometry width="50" height="50" relative="1" as="geometry">
            <mxPoint x="547" y="2740" as="sourcePoint" />
            <mxPoint x="407.597874015748" y="2680.0025196850393" as="targetPoint" />
            <Array as="points">
              <mxPoint x="547" y="2703" />
              <mxPoint x="408" y="2703" />
            </Array>
          </mxGeometry>
        </mxCell>
        <mxCell id="GJWb4l7mvsMDe13Qzarv-217" value="" style="edgeStyle=orthogonalEdgeStyle;elbow=vertical;endArrow=classic;html=1;rounded=0;endSize=8;startSize=8;exitX=0.483;exitY=0.985;exitDx=0;exitDy=0;exitPerimeter=0;entryX=0;entryY=0.5;entryDx=0;entryDy=0;" parent="1" source="GJWb4l7mvsMDe13Qzarv-214" target="GJWb4l7mvsMDe13Qzarv-144" edge="1">
          <mxGeometry width="50" height="50" relative="1" as="geometry">
            <mxPoint x="580" y="2820" as="sourcePoint" />
            <mxPoint x="320" y="2680" as="targetPoint" />
            <Array as="points">
              <mxPoint x="768" y="2900" />
              <mxPoint x="270" y="2900" />
              <mxPoint x="270" y="2660" />
            </Array>
          </mxGeometry>
        </mxCell>
        <mxCell id="GJWb4l7mvsMDe13Qzarv-223" value="" style="line;strokeWidth=2;direction=south;html=1;" parent="1" vertex="1">
          <mxGeometry x="443.40000000000003" y="3040" width="10" height="40" as="geometry" />
        </mxCell>
        <mxCell id="GJWb4l7mvsMDe13Qzarv-224" value="" style="rounded=0;whiteSpace=wrap;html=1;fillColor=none;" parent="1" vertex="1">
          <mxGeometry x="358.3" y="3040" width="281.7" height="40" as="geometry" />
        </mxCell>
        <mxCell id="GJWb4l7mvsMDe13Qzarv-225" value="&lt;font style=&quot;font-size: 20px;&quot;&gt;&lt;b style=&quot;&quot;&gt;Property_Owner&lt;/b&gt;&lt;/font&gt;" style="text;html=1;align=center;verticalAlign=middle;resizable=0;points=[];autosize=1;strokeColor=none;fillColor=none;" parent="1" vertex="1">
          <mxGeometry x="342.15000000000003" y="3000" width="180" height="40" as="geometry" />
        </mxCell>
        <mxCell id="GJWb4l7mvsMDe13Qzarv-226" value="&lt;span style=&quot;font-size: 18px;&quot;&gt;ID_prop&lt;/span&gt;" style="text;html=1;align=center;verticalAlign=middle;resizable=0;points=[];autosize=1;strokeColor=none;fillColor=none;" parent="1" vertex="1">
          <mxGeometry x="355.75" y="3040" width="90" height="40" as="geometry" />
        </mxCell>
        <mxCell id="GJWb4l7mvsMDe13Qzarv-228" value="&lt;span style=&quot;font-size: 18px;&quot;&gt;ID_Owner&lt;/span&gt;" style="text;html=1;align=center;verticalAlign=middle;resizable=0;points=[];autosize=1;strokeColor=none;fillColor=none;" parent="1" vertex="1">
          <mxGeometry x="447.6" y="3040" width="100" height="40" as="geometry" />
        </mxCell>
        <mxCell id="GJWb4l7mvsMDe13Qzarv-229" value="" style="line;strokeWidth=2;direction=south;html=1;" parent="1" vertex="1">
          <mxGeometry x="544.83" y="3040" width="10" height="40" as="geometry" />
        </mxCell>
        <mxCell id="GJWb4l7mvsMDe13Qzarv-230" value="&lt;font style=&quot;font-size: 18px;&quot;&gt;Precent&lt;/font&gt;" style="text;html=1;align=center;verticalAlign=middle;resizable=0;points=[];autosize=1;strokeColor=none;fillColor=none;" parent="1" vertex="1">
          <mxGeometry x="548.4" y="3040" width="90" height="40" as="geometry" />
        </mxCell>
        <mxCell id="GJWb4l7mvsMDe13Qzarv-231" value="" style="line;strokeWidth=2;html=1;dashed=1;" parent="1" vertex="1">
          <mxGeometry x="457.45000000000005" y="3070" width="83.4" height="10" as="geometry" />
        </mxCell>
        <mxCell id="GJWb4l7mvsMDe13Qzarv-233" value="" style="line;strokeWidth=2;html=1;dashed=1;" parent="1" vertex="1">
          <mxGeometry x="364.20000000000005" y="3070" width="75.8" height="10" as="geometry" />
        </mxCell>
        <mxCell id="GJWb4l7mvsMDe13Qzarv-234" value="" style="edgeStyle=orthogonalEdgeStyle;elbow=vertical;endArrow=classic;html=1;rounded=0;endSize=8;startSize=8;exitX=0.457;exitY=1.012;exitDx=0;exitDy=0;exitPerimeter=0;entryX=0.479;entryY=0.956;entryDx=0;entryDy=0;entryPerimeter=0;" parent="1" source="GJWb4l7mvsMDe13Qzarv-228" target="GJWb4l7mvsMDe13Qzarv-195" edge="1">
          <mxGeometry width="50" height="50" relative="1" as="geometry">
            <mxPoint x="600" y="2940" as="sourcePoint" />
            <mxPoint x="650" y="2890" as="targetPoint" />
            <Array as="points">
              <mxPoint x="493" y="3100" />
              <mxPoint x="730" y="3100" />
              <mxPoint x="730" y="3000" />
              <mxPoint x="389" y="3000" />
            </Array>
          </mxGeometry>
        </mxCell>
        <mxCell id="GJWb4l7mvsMDe13Qzarv-235" value="" style="edgeStyle=orthogonalEdgeStyle;elbow=vertical;endArrow=classic;html=1;rounded=0;endSize=8;startSize=8;exitX=0.462;exitY=0.986;exitDx=0;exitDy=0;exitPerimeter=0;entryX=0;entryY=0.5;entryDx=0;entryDy=0;" parent="1" source="GJWb4l7mvsMDe13Qzarv-226" target="GJWb4l7mvsMDe13Qzarv-181" edge="1">
          <mxGeometry width="50" height="50" relative="1" as="geometry">
            <mxPoint x="640" y="3030" as="sourcePoint" />
            <mxPoint x="690" y="2980" as="targetPoint" />
            <Array as="points">
              <mxPoint x="397" y="3100" />
              <mxPoint x="300" y="3100" />
              <mxPoint x="300" y="2860" />
            </Array>
          </mxGeometry>
        </mxCell>
        <mxCell id="ppYeGMJP4Vg2n3mMBXnk-12" value="" style="line;strokeWidth=2;direction=south;html=1;" parent="1" vertex="1">
          <mxGeometry x="433.43" y="3420" width="10" height="40" as="geometry" />
        </mxCell>
        <mxCell id="ppYeGMJP4Vg2n3mMBXnk-13" value="" style="rounded=0;whiteSpace=wrap;html=1;fillColor=none;" parent="1" vertex="1">
          <mxGeometry x="383.43" y="3420" width="456.57" height="40" as="geometry" />
        </mxCell>
        <mxCell id="ppYeGMJP4Vg2n3mMBXnk-14" value="&lt;font style=&quot;font-size: 20px;&quot;&gt;&lt;b style=&quot;&quot;&gt;Student&lt;/b&gt;&lt;/font&gt;" style="text;html=1;align=center;verticalAlign=middle;resizable=0;points=[];autosize=1;strokeColor=none;fillColor=none;" parent="1" vertex="1">
          <mxGeometry x="366.72999999999996" y="3380" width="100" height="40" as="geometry" />
        </mxCell>
        <mxCell id="ppYeGMJP4Vg2n3mMBXnk-15" value="&lt;font style=&quot;font-size: 18px;&quot;&gt;ID&lt;/font&gt;" style="text;html=1;align=center;verticalAlign=middle;resizable=0;points=[];autosize=1;strokeColor=none;fillColor=none;" parent="1" vertex="1">
          <mxGeometry x="388.43" y="3420" width="40" height="40" as="geometry" />
        </mxCell>
        <mxCell id="ppYeGMJP4Vg2n3mMBXnk-16" value="" style="line;strokeWidth=4;html=1;perimeter=backbonePerimeter;points=[];outlineConnect=0;" parent="1" vertex="1">
          <mxGeometry x="393.43" y="3450" width="30" height="10" as="geometry" />
        </mxCell>
        <mxCell id="ppYeGMJP4Vg2n3mMBXnk-17" value="" style="line;strokeWidth=2;direction=south;html=1;" parent="1" vertex="1">
          <mxGeometry x="513.4300000000001" y="3420" width="10" height="40" as="geometry" />
        </mxCell>
        <mxCell id="ppYeGMJP4Vg2n3mMBXnk-18" value="" style="line;strokeWidth=2;direction=south;html=1;" parent="1" vertex="1">
          <mxGeometry x="650.13" y="3420" width="10" height="40" as="geometry" />
        </mxCell>
        <mxCell id="ppYeGMJP4Vg2n3mMBXnk-19" value="" style="line;strokeWidth=2;direction=south;html=1;" parent="1" vertex="1">
          <mxGeometry x="595.13" y="3420" width="10" height="40" as="geometry" />
        </mxCell>
        <mxCell id="ppYeGMJP4Vg2n3mMBXnk-20" value="&lt;font style=&quot;font-size: 18px;&quot;&gt;Fname&lt;/font&gt;" style="text;html=1;align=center;verticalAlign=middle;resizable=0;points=[];autosize=1;strokeColor=none;fillColor=none;" parent="1" vertex="1">
          <mxGeometry x="438.13" y="3420" width="80" height="40" as="geometry" />
        </mxCell>
        <mxCell id="ppYeGMJP4Vg2n3mMBXnk-21" value="&lt;font style=&quot;font-size: 18px;&quot;&gt;age&lt;/font&gt;" style="text;html=1;align=center;verticalAlign=middle;resizable=0;points=[];autosize=1;strokeColor=none;fillColor=none;" parent="1" vertex="1">
          <mxGeometry x="600.38" y="3420" width="50" height="40" as="geometry" />
        </mxCell>
        <mxCell id="ppYeGMJP4Vg2n3mMBXnk-22" value="&lt;span style=&quot;font-size: 18px;&quot;&gt;Lname&lt;/span&gt;" style="text;html=1;align=center;verticalAlign=middle;resizable=0;points=[];autosize=1;strokeColor=none;fillColor=none;" parent="1" vertex="1">
          <mxGeometry x="518.4300000000001" y="3420" width="80" height="40" as="geometry" />
        </mxCell>
        <mxCell id="ppYeGMJP4Vg2n3mMBXnk-23" value="&lt;font style=&quot;font-size: 18px;&quot;&gt;Address&lt;/font&gt;" style="text;html=1;align=center;verticalAlign=middle;resizable=0;points=[];autosize=1;strokeColor=none;fillColor=none;" parent="1" vertex="1">
          <mxGeometry x="655.13" y="3420" width="90" height="40" as="geometry" />
        </mxCell>
        <mxCell id="ppYeGMJP4Vg2n3mMBXnk-24" value="" style="line;strokeWidth=2;direction=south;html=1;" parent="1" vertex="1">
          <mxGeometry x="432.46000000000004" y="3520" width="10" height="40" as="geometry" />
        </mxCell>
        <mxCell id="ppYeGMJP4Vg2n3mMBXnk-25" value="" style="rounded=0;whiteSpace=wrap;html=1;fillColor=none;" parent="1" vertex="1">
          <mxGeometry x="382.46" y="3520" width="317.54" height="40" as="geometry" />
        </mxCell>
        <mxCell id="ppYeGMJP4Vg2n3mMBXnk-26" value="&lt;font style=&quot;font-size: 20px;&quot;&gt;&lt;b style=&quot;&quot;&gt;Department&lt;/b&gt;&lt;/font&gt;" style="text;html=1;align=center;verticalAlign=middle;resizable=0;points=[];autosize=1;strokeColor=none;fillColor=none;" parent="1" vertex="1">
          <mxGeometry x="370.23" y="3480" width="130" height="40" as="geometry" />
        </mxCell>
        <mxCell id="ppYeGMJP4Vg2n3mMBXnk-27" value="&lt;font style=&quot;font-size: 18px;&quot;&gt;ID&lt;/font&gt;" style="text;html=1;align=center;verticalAlign=middle;resizable=0;points=[];autosize=1;strokeColor=none;fillColor=none;" parent="1" vertex="1">
          <mxGeometry x="387.46000000000004" y="3520" width="40" height="40" as="geometry" />
        </mxCell>
        <mxCell id="ppYeGMJP4Vg2n3mMBXnk-28" value="" style="line;strokeWidth=4;html=1;perimeter=backbonePerimeter;points=[];outlineConnect=0;" parent="1" vertex="1">
          <mxGeometry x="392.46000000000004" y="3550" width="30" height="10" as="geometry" />
        </mxCell>
        <mxCell id="ppYeGMJP4Vg2n3mMBXnk-29" value="" style="line;strokeWidth=2;direction=south;html=1;" parent="1" vertex="1">
          <mxGeometry x="512.46" y="3520" width="10" height="40" as="geometry" />
        </mxCell>
        <mxCell id="ppYeGMJP4Vg2n3mMBXnk-31" value="" style="line;strokeWidth=2;direction=south;html=1;" parent="1" vertex="1">
          <mxGeometry x="594.1600000000001" y="3520" width="10" height="40" as="geometry" />
        </mxCell>
        <mxCell id="ppYeGMJP4Vg2n3mMBXnk-32" value="&lt;font style=&quot;font-size: 18px;&quot;&gt;Name&lt;/font&gt;" style="text;html=1;align=center;verticalAlign=middle;resizable=0;points=[];autosize=1;strokeColor=none;fillColor=none;" parent="1" vertex="1">
          <mxGeometry x="442.1600000000001" y="3520" width="70" height="40" as="geometry" />
        </mxCell>
        <mxCell id="ppYeGMJP4Vg2n3mMBXnk-36" value="" style="line;strokeWidth=2;direction=south;html=1;" parent="1" vertex="1">
          <mxGeometry x="429.86" y="3620" width="10" height="40" as="geometry" />
        </mxCell>
        <mxCell id="ppYeGMJP4Vg2n3mMBXnk-37" value="" style="rounded=0;whiteSpace=wrap;html=1;fillColor=none;" parent="1" vertex="1">
          <mxGeometry x="379.86" y="3620" width="400.14" height="40" as="geometry" />
        </mxCell>
        <mxCell id="ppYeGMJP4Vg2n3mMBXnk-38" value="&lt;font style=&quot;font-size: 20px;&quot;&gt;&lt;b style=&quot;&quot;&gt;Course&lt;/b&gt;&lt;/font&gt;" style="text;html=1;align=center;verticalAlign=middle;resizable=0;points=[];autosize=1;strokeColor=none;fillColor=none;" parent="1" vertex="1">
          <mxGeometry x="368.15999999999997" y="3580" width="90" height="40" as="geometry" />
        </mxCell>
        <mxCell id="ppYeGMJP4Vg2n3mMBXnk-39" value="&lt;font style=&quot;font-size: 18px;&quot;&gt;ID&lt;/font&gt;" style="text;html=1;align=center;verticalAlign=middle;resizable=0;points=[];autosize=1;strokeColor=none;fillColor=none;" parent="1" vertex="1">
          <mxGeometry x="388.43000000000006" y="3620" width="40" height="40" as="geometry" />
        </mxCell>
        <mxCell id="ppYeGMJP4Vg2n3mMBXnk-40" value="" style="line;strokeWidth=4;html=1;perimeter=backbonePerimeter;points=[];outlineConnect=0;" parent="1" vertex="1">
          <mxGeometry x="395.39" y="3650" width="30" height="10" as="geometry" />
        </mxCell>
        <mxCell id="ppYeGMJP4Vg2n3mMBXnk-41" value="" style="line;strokeWidth=2;direction=south;html=1;" parent="1" vertex="1">
          <mxGeometry x="506.13" y="3620" width="10" height="40" as="geometry" />
        </mxCell>
        <mxCell id="ppYeGMJP4Vg2n3mMBXnk-43" value="" style="line;strokeWidth=2;direction=south;html=1;" parent="1" vertex="1">
          <mxGeometry x="591.5600000000001" y="3620" width="10" height="40" as="geometry" />
        </mxCell>
        <mxCell id="ppYeGMJP4Vg2n3mMBXnk-44" value="&lt;font style=&quot;font-size: 18px;&quot;&gt;Name&lt;/font&gt;" style="text;html=1;align=center;verticalAlign=middle;resizable=0;points=[];autosize=1;strokeColor=none;fillColor=none;" parent="1" vertex="1">
          <mxGeometry x="435.7300000000001" y="3620" width="70" height="40" as="geometry" />
        </mxCell>
        <mxCell id="ppYeGMJP4Vg2n3mMBXnk-45" value="&lt;font style=&quot;font-size: 18px;&quot;&gt;Description&lt;/font&gt;" style="text;html=1;align=center;verticalAlign=middle;resizable=0;points=[];autosize=1;strokeColor=none;fillColor=none;" parent="1" vertex="1">
          <mxGeometry x="595.7300000000001" y="3620" width="110" height="40" as="geometry" />
        </mxCell>
        <mxCell id="ppYeGMJP4Vg2n3mMBXnk-46" value="&lt;span style=&quot;font-size: 18px;&quot;&gt;Duration&lt;/span&gt;" style="text;html=1;align=center;verticalAlign=middle;resizable=0;points=[];autosize=1;strokeColor=none;fillColor=none;" parent="1" vertex="1">
          <mxGeometry x="507.73" y="3620" width="90" height="40" as="geometry" />
        </mxCell>
        <mxCell id="ppYeGMJP4Vg2n3mMBXnk-48" value="" style="line;strokeWidth=2;direction=south;html=1;" parent="1" vertex="1">
          <mxGeometry x="432.45000000000005" y="3720" width="10" height="40" as="geometry" />
        </mxCell>
        <mxCell id="ppYeGMJP4Vg2n3mMBXnk-49" value="" style="rounded=0;whiteSpace=wrap;html=1;fillColor=none;" parent="1" vertex="1">
          <mxGeometry x="382.45" y="3720" width="547.55" height="40" as="geometry" />
        </mxCell>
        <mxCell id="ppYeGMJP4Vg2n3mMBXnk-50" value="&lt;font style=&quot;font-size: 20px;&quot;&gt;&lt;b style=&quot;&quot;&gt;Instructor&lt;/b&gt;&lt;/font&gt;" style="text;html=1;align=center;verticalAlign=middle;resizable=0;points=[];autosize=1;strokeColor=none;fillColor=none;" parent="1" vertex="1">
          <mxGeometry x="355.75" y="3680" width="120" height="40" as="geometry" />
        </mxCell>
        <mxCell id="ppYeGMJP4Vg2n3mMBXnk-51" value="&lt;font style=&quot;font-size: 18px;&quot;&gt;ID&lt;/font&gt;" style="text;html=1;align=center;verticalAlign=middle;resizable=0;points=[];autosize=1;strokeColor=none;fillColor=none;" parent="1" vertex="1">
          <mxGeometry x="390.6000000000001" y="3720" width="40" height="40" as="geometry" />
        </mxCell>
        <mxCell id="ppYeGMJP4Vg2n3mMBXnk-52" value="" style="line;strokeWidth=4;html=1;perimeter=backbonePerimeter;points=[];outlineConnect=0;" parent="1" vertex="1">
          <mxGeometry x="395.39000000000004" y="3750" width="30" height="10" as="geometry" />
        </mxCell>
        <mxCell id="ppYeGMJP4Vg2n3mMBXnk-53" value="" style="line;strokeWidth=2;direction=south;html=1;" parent="1" vertex="1">
          <mxGeometry x="505.13000000000005" y="3720" width="10" height="40" as="geometry" />
        </mxCell>
        <mxCell id="ppYeGMJP4Vg2n3mMBXnk-54" value="" style="line;strokeWidth=2;direction=south;html=1;" parent="1" vertex="1">
          <mxGeometry x="649.1500000000001" y="3720" width="10" height="40" as="geometry" />
        </mxCell>
        <mxCell id="ppYeGMJP4Vg2n3mMBXnk-55" value="" style="line;strokeWidth=2;direction=south;html=1;" parent="1" vertex="1">
          <mxGeometry x="577.7300000000001" y="3720" width="10" height="40" as="geometry" />
        </mxCell>
        <mxCell id="ppYeGMJP4Vg2n3mMBXnk-56" value="&lt;font style=&quot;font-size: 18px;&quot;&gt;Name&lt;/font&gt;" style="text;html=1;align=center;verticalAlign=middle;resizable=0;points=[];autosize=1;strokeColor=none;fillColor=none;" parent="1" vertex="1">
          <mxGeometry x="437.73" y="3720" width="70" height="40" as="geometry" />
        </mxCell>
        <mxCell id="ppYeGMJP4Vg2n3mMBXnk-57" value="&lt;span style=&quot;font-size: 18px;&quot;&gt;Salary&lt;/span&gt;" style="text;html=1;align=center;verticalAlign=middle;resizable=0;points=[];autosize=1;strokeColor=none;fillColor=none;" parent="1" vertex="1">
          <mxGeometry x="582.1600000000001" y="3720" width="70" height="40" as="geometry" />
        </mxCell>
        <mxCell id="ppYeGMJP4Vg2n3mMBXnk-58" value="&lt;span style=&quot;font-size: 18px;&quot;&gt;Bonus&lt;/span&gt;" style="text;html=1;align=center;verticalAlign=middle;resizable=0;points=[];autosize=1;strokeColor=none;fillColor=none;" parent="1" vertex="1">
          <mxGeometry x="512.1600000000001" y="3720" width="70" height="40" as="geometry" />
        </mxCell>
        <mxCell id="ppYeGMJP4Vg2n3mMBXnk-59" value="&lt;font style=&quot;font-size: 18px;&quot;&gt;Address&lt;/font&gt;" style="text;html=1;align=center;verticalAlign=middle;resizable=0;points=[];autosize=1;strokeColor=none;fillColor=none;" parent="1" vertex="1">
          <mxGeometry x="655.1300000000001" y="3720" width="90" height="40" as="geometry" />
        </mxCell>
        <mxCell id="ppYeGMJP4Vg2n3mMBXnk-60" value="" style="line;strokeWidth=2;direction=south;html=1;" parent="1" vertex="1">
          <mxGeometry x="737.7300000000001" y="3720" width="10" height="40" as="geometry" />
        </mxCell>
        <mxCell id="ppYeGMJP4Vg2n3mMBXnk-61" value="&lt;font style=&quot;font-size: 18px;&quot;&gt;HourRate&lt;/font&gt;" style="text;html=1;align=center;verticalAlign=middle;resizable=0;points=[];autosize=1;strokeColor=none;fillColor=none;" parent="1" vertex="1">
          <mxGeometry x="741.5600000000001" y="3720" width="100" height="40" as="geometry" />
        </mxCell>
        <mxCell id="ppYeGMJP4Vg2n3mMBXnk-62" value="" style="line;strokeWidth=2;direction=south;html=1;" parent="1" vertex="1">
          <mxGeometry x="430.39" y="3820" width="10" height="40" as="geometry" />
        </mxCell>
        <mxCell id="ppYeGMJP4Vg2n3mMBXnk-63" value="" style="rounded=0;whiteSpace=wrap;html=1;fillColor=none;" parent="1" vertex="1">
          <mxGeometry x="380.39" y="3820" width="129.61" height="40" as="geometry" />
        </mxCell>
        <mxCell id="ppYeGMJP4Vg2n3mMBXnk-64" value="&lt;font style=&quot;font-size: 20px;&quot;&gt;&lt;b style=&quot;&quot;&gt;Topic&lt;/b&gt;&lt;/font&gt;" style="text;html=1;align=center;verticalAlign=middle;resizable=0;points=[];autosize=1;strokeColor=none;fillColor=none;" parent="1" vertex="1">
          <mxGeometry x="360.88" y="3780" width="80" height="40" as="geometry" />
        </mxCell>
        <mxCell id="ppYeGMJP4Vg2n3mMBXnk-65" value="&lt;font style=&quot;font-size: 18px;&quot;&gt;ID&lt;/font&gt;" style="text;html=1;align=center;verticalAlign=middle;resizable=0;points=[];autosize=1;strokeColor=none;fillColor=none;" parent="1" vertex="1">
          <mxGeometry x="385.39" y="3820" width="40" height="40" as="geometry" />
        </mxCell>
        <mxCell id="ppYeGMJP4Vg2n3mMBXnk-66" value="" style="line;strokeWidth=4;html=1;perimeter=backbonePerimeter;points=[];outlineConnect=0;" parent="1" vertex="1">
          <mxGeometry x="390.39" y="3850" width="30" height="10" as="geometry" />
        </mxCell>
        <mxCell id="ppYeGMJP4Vg2n3mMBXnk-70" value="&lt;font style=&quot;font-size: 18px;&quot;&gt;Name&lt;/font&gt;" style="text;html=1;align=center;verticalAlign=middle;resizable=0;points=[];autosize=1;strokeColor=none;fillColor=none;" parent="1" vertex="1">
          <mxGeometry x="440.09000000000003" y="3820" width="70" height="40" as="geometry" />
        </mxCell>
        <mxCell id="ppYeGMJP4Vg2n3mMBXnk-71" value="" style="line;strokeWidth=2;html=1;dashed=1;" parent="1" vertex="1">
          <mxGeometry x="527.7299999999999" y="3550" width="61.4" height="10" as="geometry" />
        </mxCell>
        <mxCell id="ppYeGMJP4Vg2n3mMBXnk-73" value="" style="line;strokeWidth=2;direction=south;html=1;" parent="1" vertex="1">
          <mxGeometry x="741.5600000000001" y="3420" width="10" height="40" as="geometry" />
        </mxCell>
        <mxCell id="ppYeGMJP4Vg2n3mMBXnk-74" value="&lt;font style=&quot;font-size: 18px;&quot;&gt;ID_dept&lt;/font&gt;" style="text;html=1;align=center;verticalAlign=middle;resizable=0;points=[];autosize=1;strokeColor=none;fillColor=none;" parent="1" vertex="1">
          <mxGeometry x="746.56" y="3420" width="90" height="40" as="geometry" />
        </mxCell>
        <mxCell id="ppYeGMJP4Vg2n3mMBXnk-75" value="" style="line;strokeWidth=2;html=1;dashed=1;" parent="1" vertex="1">
          <mxGeometry x="760" y="3450" width="71.13" height="10" as="geometry" />
        </mxCell>
        <mxCell id="ppYeGMJP4Vg2n3mMBXnk-76" value="" style="endArrow=classic;html=1;rounded=0;edgeStyle=orthogonalEdgeStyle;exitX=0.468;exitY=1.089;exitDx=0;exitDy=0;exitPerimeter=0;entryX=0;entryY=0.5;entryDx=0;entryDy=0;" parent="1" source="ppYeGMJP4Vg2n3mMBXnk-74" target="ppYeGMJP4Vg2n3mMBXnk-25" edge="1">
          <mxGeometry width="50" height="50" relative="1" as="geometry">
            <mxPoint x="740" y="3640" as="sourcePoint" />
            <mxPoint x="790" y="3590" as="targetPoint" />
            <Array as="points">
              <mxPoint x="789" y="3480" />
              <mxPoint x="330" y="3480" />
              <mxPoint x="330" y="3540" />
            </Array>
          </mxGeometry>
        </mxCell>
        <mxCell id="ppYeGMJP4Vg2n3mMBXnk-79" value="" style="line;strokeWidth=2;direction=south;html=1;" parent="1" vertex="1">
          <mxGeometry x="836.5600000000001" y="3720" width="10" height="40" as="geometry" />
        </mxCell>
        <mxCell id="ppYeGMJP4Vg2n3mMBXnk-80" value="&lt;font style=&quot;font-size: 18px;&quot;&gt;ID_Dept&lt;/font&gt;" style="text;html=1;align=center;verticalAlign=middle;resizable=0;points=[];autosize=1;strokeColor=none;fillColor=none;" parent="1" vertex="1">
          <mxGeometry x="840" y="3720" width="90" height="40" as="geometry" />
        </mxCell>
        <mxCell id="ppYeGMJP4Vg2n3mMBXnk-81" value="" style="line;strokeWidth=2;html=1;dashed=1;" parent="1" vertex="1">
          <mxGeometry x="849.44" y="3750" width="71.13" height="10" as="geometry" />
        </mxCell>
        <mxCell id="ppYeGMJP4Vg2n3mMBXnk-82" value="" style="endArrow=classic;html=1;rounded=0;edgeStyle=orthogonalEdgeStyle;entryX=0;entryY=0.75;entryDx=0;entryDy=0;" parent="1" target="ppYeGMJP4Vg2n3mMBXnk-25" edge="1">
          <mxGeometry width="50" height="50" relative="1" as="geometry">
            <mxPoint x="880" y="3760" as="sourcePoint" />
            <mxPoint x="680" y="3590" as="targetPoint" />
            <Array as="points">
              <mxPoint x="880" y="3770" />
              <mxPoint x="240" y="3770" />
              <mxPoint x="240" y="3550" />
            </Array>
          </mxGeometry>
        </mxCell>
        <mxCell id="ppYeGMJP4Vg2n3mMBXnk-83" value="" style="line;strokeWidth=2;direction=south;html=1;" parent="1" vertex="1">
          <mxGeometry x="705.7300000000001" y="3620" width="10" height="40" as="geometry" />
        </mxCell>
        <mxCell id="ppYeGMJP4Vg2n3mMBXnk-84" value="&lt;font style=&quot;font-size: 18px;&quot;&gt;ID_T&lt;/font&gt;" style="text;html=1;align=center;verticalAlign=middle;resizable=0;points=[];autosize=1;strokeColor=none;fillColor=none;" parent="1" vertex="1">
          <mxGeometry x="712.6" y="3620" width="60" height="40" as="geometry" />
        </mxCell>
        <mxCell id="ppYeGMJP4Vg2n3mMBXnk-85" value="" style="line;strokeWidth=2;html=1;dashed=1;" parent="1" vertex="1">
          <mxGeometry x="720.9999999999999" y="3650" width="51.13" height="10" as="geometry" />
        </mxCell>
        <mxCell id="ppYeGMJP4Vg2n3mMBXnk-86" value="" style="endArrow=classic;html=1;rounded=0;edgeStyle=orthogonalEdgeStyle;exitX=1;exitY=0.5;exitDx=0;exitDy=0;entryX=0.54;entryY=1.004;entryDx=0;entryDy=0;entryPerimeter=0;" parent="1" source="ppYeGMJP4Vg2n3mMBXnk-37" target="ppYeGMJP4Vg2n3mMBXnk-65" edge="1">
          <mxGeometry width="50" height="50" relative="1" as="geometry">
            <mxPoint x="650" y="3630" as="sourcePoint" />
            <mxPoint x="700" y="3580" as="targetPoint" />
            <Array as="points">
              <mxPoint x="1030" y="3640" />
              <mxPoint x="1030" y="3880" />
              <mxPoint x="407" y="3880" />
            </Array>
          </mxGeometry>
        </mxCell>
        <mxCell id="ppYeGMJP4Vg2n3mMBXnk-87" value="&lt;font style=&quot;font-size: 18px;&quot;&gt;HiringDate&lt;/font&gt;" style="text;html=1;align=center;verticalAlign=middle;resizable=0;points=[];autosize=1;strokeColor=none;fillColor=none;" parent="1" vertex="1">
          <mxGeometry x="597.09" y="3520" width="110" height="40" as="geometry" />
        </mxCell>
        <mxCell id="ppYeGMJP4Vg2n3mMBXnk-90" value="&lt;font style=&quot;font-size: 18px;&quot;&gt;ID_ins&lt;/font&gt;" style="text;html=1;align=center;verticalAlign=middle;resizable=0;points=[];autosize=1;strokeColor=none;fillColor=none;" parent="1" vertex="1">
          <mxGeometry x="520.5999999999999" y="3520" width="70" height="40" as="geometry" />
        </mxCell>
        <mxCell id="ppYeGMJP4Vg2n3mMBXnk-91" value="" style="endArrow=classic;html=1;rounded=0;edgeStyle=orthogonalEdgeStyle;exitX=0.551;exitY=1;exitDx=0;exitDy=0;exitPerimeter=0;entryX=0;entryY=0.5;entryDx=0;entryDy=0;" parent="1" source="ppYeGMJP4Vg2n3mMBXnk-25" target="ppYeGMJP4Vg2n3mMBXnk-49" edge="1">
          <mxGeometry width="50" height="50" relative="1" as="geometry">
            <mxPoint x="670" y="3630" as="sourcePoint" />
            <mxPoint x="720" y="3580" as="targetPoint" />
            <Array as="points">
              <mxPoint x="557" y="3580" />
              <mxPoint x="330" y="3580" />
              <mxPoint x="330" y="3740" />
            </Array>
          </mxGeometry>
        </mxCell>
        <mxCell id="ppYeGMJP4Vg2n3mMBXnk-97" value="" style="line;strokeWidth=2;direction=south;html=1;" parent="1" vertex="1">
          <mxGeometry x="420.96000000000004" y="3940" width="10" height="40" as="geometry" />
        </mxCell>
        <mxCell id="ppYeGMJP4Vg2n3mMBXnk-98" value="" style="rounded=0;whiteSpace=wrap;html=1;fillColor=none;" parent="1" vertex="1">
          <mxGeometry x="370.96" y="3940" width="199.04" height="40" as="geometry" />
        </mxCell>
        <mxCell id="ppYeGMJP4Vg2n3mMBXnk-99" value="&lt;font style=&quot;font-size: 20px;&quot;&gt;&lt;b style=&quot;&quot;&gt;Student_Course&lt;/b&gt;&lt;/font&gt;" style="text;html=1;align=center;verticalAlign=middle;resizable=0;points=[];autosize=1;strokeColor=none;fillColor=none;" parent="1" vertex="1">
          <mxGeometry x="356.6" y="3900" width="180" height="40" as="geometry" />
        </mxCell>
        <mxCell id="ppYeGMJP4Vg2n3mMBXnk-100" value="&lt;font style=&quot;font-size: 18px;&quot;&gt;ID_S&lt;/font&gt;" style="text;html=1;align=center;verticalAlign=middle;resizable=0;points=[];autosize=1;strokeColor=none;fillColor=none;" parent="1" vertex="1">
          <mxGeometry x="368.43" y="3940" width="60" height="40" as="geometry" />
        </mxCell>
        <mxCell id="ppYeGMJP4Vg2n3mMBXnk-102" value="" style="line;strokeWidth=2;direction=south;html=1;" parent="1" vertex="1">
          <mxGeometry x="490.00000000000006" y="3940" width="10" height="40" as="geometry" />
        </mxCell>
        <mxCell id="ppYeGMJP4Vg2n3mMBXnk-105" value="&lt;font style=&quot;font-size: 18px;&quot;&gt;ID_C&lt;/font&gt;" style="text;html=1;align=center;verticalAlign=middle;resizable=0;points=[];autosize=1;strokeColor=none;fillColor=none;" parent="1" vertex="1">
          <mxGeometry x="426.73" y="3940" width="60" height="40" as="geometry" />
        </mxCell>
        <mxCell id="ppYeGMJP4Vg2n3mMBXnk-107" value="&lt;span style=&quot;font-size: 18px;&quot;&gt;Grade&lt;/span&gt;" style="text;html=1;align=center;verticalAlign=middle;resizable=0;points=[];autosize=1;strokeColor=none;fillColor=none;" parent="1" vertex="1">
          <mxGeometry x="499.00000000000006" y="3940" width="70" height="40" as="geometry" />
        </mxCell>
        <mxCell id="ppYeGMJP4Vg2n3mMBXnk-111" value="" style="line;strokeWidth=2;html=1;dashed=1;" parent="1" vertex="1">
          <mxGeometry x="377.9" y="3970" width="42.1" height="10" as="geometry" />
        </mxCell>
        <mxCell id="ppYeGMJP4Vg2n3mMBXnk-112" value="" style="line;strokeWidth=2;direction=south;html=1;" parent="1" vertex="1">
          <mxGeometry x="438.13" y="4050" width="10" height="40" as="geometry" />
        </mxCell>
        <mxCell id="ppYeGMJP4Vg2n3mMBXnk-113" value="" style="rounded=0;whiteSpace=wrap;html=1;fillColor=none;" parent="1" vertex="1">
          <mxGeometry x="370.23" y="4050" width="259.77" height="40" as="geometry" />
        </mxCell>
        <mxCell id="ppYeGMJP4Vg2n3mMBXnk-114" value="&lt;font style=&quot;font-size: 20px;&quot;&gt;&lt;b style=&quot;&quot;&gt;Course_Instructor&lt;/b&gt;&lt;/font&gt;" style="text;html=1;align=center;verticalAlign=middle;resizable=0;points=[];autosize=1;strokeColor=none;fillColor=none;" parent="1" vertex="1">
          <mxGeometry x="358.29999999999995" y="4010" width="200" height="40" as="geometry" />
        </mxCell>
        <mxCell id="ppYeGMJP4Vg2n3mMBXnk-115" value="&lt;font style=&quot;font-size: 18px;&quot;&gt;ID_C&lt;/font&gt;" style="text;html=1;align=center;verticalAlign=middle;resizable=0;points=[];autosize=1;strokeColor=none;fillColor=none;" parent="1" vertex="1">
          <mxGeometry x="375.39000000000004" y="4050" width="60" height="40" as="geometry" />
        </mxCell>
        <mxCell id="ppYeGMJP4Vg2n3mMBXnk-117" value="" style="line;strokeWidth=2;direction=south;html=1;" parent="1" vertex="1">
          <mxGeometry x="517.85" y="4050" width="10" height="40" as="geometry" />
        </mxCell>
        <mxCell id="ppYeGMJP4Vg2n3mMBXnk-122" value="&lt;span style=&quot;font-size: 18px;&quot;&gt;Evaluation&lt;/span&gt;" style="text;html=1;align=center;verticalAlign=middle;resizable=0;points=[];autosize=1;strokeColor=none;fillColor=none;" parent="1" vertex="1">
          <mxGeometry x="522.1500000000001" y="4050" width="110" height="40" as="geometry" />
        </mxCell>
        <mxCell id="ppYeGMJP4Vg2n3mMBXnk-126" value="" style="line;strokeWidth=2;html=1;dashed=1;" parent="1" vertex="1">
          <mxGeometry x="385.39000000000004" y="4080" width="40" height="10" as="geometry" />
        </mxCell>
        <mxCell id="ppYeGMJP4Vg2n3mMBXnk-128" value="" style="line;strokeWidth=2;html=1;dashed=1;" parent="1" vertex="1">
          <mxGeometry x="435.49999999999994" y="3970" width="42.1" height="10" as="geometry" />
        </mxCell>
        <mxCell id="ppYeGMJP4Vg2n3mMBXnk-132" value="&lt;font style=&quot;font-size: 18px;&quot;&gt;ID_Ins&lt;/font&gt;" style="text;html=1;align=center;verticalAlign=middle;resizable=0;points=[];autosize=1;strokeColor=none;fillColor=none;" parent="1" vertex="1">
          <mxGeometry x="440.38999999999993" y="4050" width="80" height="40" as="geometry" />
        </mxCell>
        <mxCell id="ppYeGMJP4Vg2n3mMBXnk-133" value="" style="line;strokeWidth=2;html=1;dashed=1;" parent="1" vertex="1">
          <mxGeometry x="449.2" y="4080" width="62.3" height="10" as="geometry" />
        </mxCell>
        <mxCell id="ppYeGMJP4Vg2n3mMBXnk-134" value="" style="endArrow=classic;html=1;rounded=0;edgeStyle=orthogonalEdgeStyle;entryX=0;entryY=0.5;entryDx=0;entryDy=0;" parent="1" target="ppYeGMJP4Vg2n3mMBXnk-37" edge="1">
          <mxGeometry width="50" height="50" relative="1" as="geometry">
            <mxPoint x="450" y="3980" as="sourcePoint" />
            <mxPoint x="310" y="3770" as="targetPoint" />
            <Array as="points">
              <mxPoint x="450" y="3990" />
              <mxPoint x="300" y="3990" />
              <mxPoint x="300" y="3640" />
            </Array>
          </mxGeometry>
        </mxCell>
        <mxCell id="ppYeGMJP4Vg2n3mMBXnk-135" value="" style="endArrow=classic;html=1;rounded=0;edgeStyle=orthogonalEdgeStyle;entryX=0;entryY=0.5;entryDx=0;entryDy=0;" parent="1" target="ppYeGMJP4Vg2n3mMBXnk-13" edge="1">
          <mxGeometry width="50" height="50" relative="1" as="geometry">
            <mxPoint x="370" y="3958" as="sourcePoint" />
            <mxPoint x="840" y="3780" as="targetPoint" />
            <Array as="points">
              <mxPoint x="190" y="3958" />
              <mxPoint x="190" y="3440" />
            </Array>
          </mxGeometry>
        </mxCell>
        <mxCell id="ppYeGMJP4Vg2n3mMBXnk-137" value="" style="endArrow=classic;html=1;rounded=0;edgeStyle=orthogonalEdgeStyle;exitX=0.146;exitY=0.986;exitDx=0;exitDy=0;exitPerimeter=0;entryX=0.071;entryY=1.04;entryDx=0;entryDy=0;entryPerimeter=0;" parent="1" source="ppYeGMJP4Vg2n3mMBXnk-113" target="ppYeGMJP4Vg2n3mMBXnk-37" edge="1">
          <mxGeometry width="50" height="50" relative="1" as="geometry">
            <mxPoint x="790" y="3880" as="sourcePoint" />
            <mxPoint x="840" y="3830" as="targetPoint" />
            <Array as="points">
              <mxPoint x="408" y="4100" />
              <mxPoint x="1130" y="4100" />
              <mxPoint x="1130" y="3680" />
              <mxPoint x="408" y="3680" />
            </Array>
          </mxGeometry>
        </mxCell>
        <mxCell id="ppYeGMJP4Vg2n3mMBXnk-138" value="" style="endArrow=classic;html=1;rounded=0;edgeStyle=orthogonalEdgeStyle;exitX=0.453;exitY=1.021;exitDx=0;exitDy=0;exitPerimeter=0;entryX=0;entryY=0.75;entryDx=0;entryDy=0;" parent="1" source="ppYeGMJP4Vg2n3mMBXnk-113" target="ppYeGMJP4Vg2n3mMBXnk-49" edge="1">
          <mxGeometry width="50" height="50" relative="1" as="geometry">
            <mxPoint x="520" y="4060" as="sourcePoint" />
            <mxPoint x="570" y="4010" as="targetPoint" />
            <Array as="points">
              <mxPoint x="488" y="4120" />
              <mxPoint x="130" y="4120" />
              <mxPoint x="130" y="3750" />
            </Array>
          </mxGeometry>
        </mxCell>
        <mxCell id="ppYeGMJP4Vg2n3mMBXnk-139" value="" style="line;strokeWidth=2;direction=south;html=1;" parent="1" vertex="1">
          <mxGeometry x="330.61" y="60" width="10" height="40" as="geometry" />
        </mxCell>
        <mxCell id="ppYeGMJP4Vg2n3mMBXnk-140" value="" style="rounded=0;whiteSpace=wrap;html=1;fillColor=none;" parent="1" vertex="1">
          <mxGeometry x="280.61" y="60" width="365.57" height="40" as="geometry" />
        </mxCell>
        <mxCell id="ppYeGMJP4Vg2n3mMBXnk-141" value="&lt;font style=&quot;font-size: 20px;&quot;&gt;&lt;b style=&quot;&quot;&gt;Airline&lt;/b&gt;&lt;/font&gt;" style="text;html=1;align=center;verticalAlign=middle;resizable=0;points=[];autosize=1;strokeColor=none;fillColor=none;" parent="1" vertex="1">
          <mxGeometry x="271.57" y="20" width="90" height="40" as="geometry" />
        </mxCell>
        <mxCell id="ppYeGMJP4Vg2n3mMBXnk-142" value="&lt;font style=&quot;font-size: 18px;&quot;&gt;ID&lt;/font&gt;" style="text;html=1;align=center;verticalAlign=middle;resizable=0;points=[];autosize=1;strokeColor=none;fillColor=none;" parent="1" vertex="1">
          <mxGeometry x="285.61" y="60" width="40" height="40" as="geometry" />
        </mxCell>
        <mxCell id="ppYeGMJP4Vg2n3mMBXnk-143" value="" style="line;strokeWidth=4;html=1;perimeter=backbonePerimeter;points=[];outlineConnect=0;" parent="1" vertex="1">
          <mxGeometry x="290.61" y="90" width="30" height="10" as="geometry" />
        </mxCell>
        <mxCell id="ppYeGMJP4Vg2n3mMBXnk-144" value="" style="line;strokeWidth=2;direction=south;html=1;" parent="1" vertex="1">
          <mxGeometry x="410.61" y="60" width="10" height="40" as="geometry" />
        </mxCell>
        <mxCell id="ppYeGMJP4Vg2n3mMBXnk-146" value="" style="line;strokeWidth=2;direction=south;html=1;" parent="1" vertex="1">
          <mxGeometry x="551.91" y="60" width="10" height="40" as="geometry" />
        </mxCell>
        <mxCell id="ppYeGMJP4Vg2n3mMBXnk-147" value="&lt;font style=&quot;font-size: 18px;&quot;&gt;Name&lt;/font&gt;" style="text;html=1;align=center;verticalAlign=middle;resizable=0;points=[];autosize=1;strokeColor=none;fillColor=none;" parent="1" vertex="1">
          <mxGeometry x="340.61" y="60" width="70" height="40" as="geometry" />
        </mxCell>
        <mxCell id="ppYeGMJP4Vg2n3mMBXnk-148" value="&lt;span style=&quot;font-size: 18px;&quot;&gt;Address&lt;/span&gt;" style="text;html=1;align=center;verticalAlign=middle;resizable=0;points=[];autosize=1;strokeColor=none;fillColor=none;" parent="1" vertex="1">
          <mxGeometry x="556.7800000000001" y="60" width="90" height="40" as="geometry" />
        </mxCell>
        <mxCell id="ppYeGMJP4Vg2n3mMBXnk-149" value="&lt;span style=&quot;font-size: 18px;&quot;&gt;ContactPerson&lt;/span&gt;" style="text;html=1;align=center;verticalAlign=middle;resizable=0;points=[];autosize=1;strokeColor=none;fillColor=none;" parent="1" vertex="1">
          <mxGeometry x="414.31" y="60" width="140" height="40" as="geometry" />
        </mxCell>
        <mxCell id="ppYeGMJP4Vg2n3mMBXnk-151" value="" style="line;strokeWidth=2;direction=south;html=1;" parent="1" vertex="1">
          <mxGeometry x="329.61" y="160" width="10" height="40" as="geometry" />
        </mxCell>
        <mxCell id="ppYeGMJP4Vg2n3mMBXnk-152" value="" style="rounded=0;whiteSpace=wrap;html=1;fillColor=none;" parent="1" vertex="1">
          <mxGeometry x="279.61" y="160" width="680.39" height="40" as="geometry" />
        </mxCell>
        <mxCell id="ppYeGMJP4Vg2n3mMBXnk-153" value="&lt;font style=&quot;font-size: 20px;&quot;&gt;&lt;b style=&quot;&quot;&gt;Employee&lt;/b&gt;&lt;/font&gt;" style="text;html=1;align=center;verticalAlign=middle;resizable=0;points=[];autosize=1;strokeColor=none;fillColor=none;" parent="1" vertex="1">
          <mxGeometry x="268.01" y="120" width="120" height="40" as="geometry" />
        </mxCell>
        <mxCell id="ppYeGMJP4Vg2n3mMBXnk-154" value="&lt;font style=&quot;font-size: 18px;&quot;&gt;ID&lt;/font&gt;" style="text;html=1;align=center;verticalAlign=middle;resizable=0;points=[];autosize=1;strokeColor=none;fillColor=none;" parent="1" vertex="1">
          <mxGeometry x="280" y="160" width="40" height="40" as="geometry" />
        </mxCell>
        <mxCell id="ppYeGMJP4Vg2n3mMBXnk-155" value="" style="line;strokeWidth=4;html=1;perimeter=backbonePerimeter;points=[];outlineConnect=0;" parent="1" vertex="1">
          <mxGeometry x="290" y="190" width="30" height="10" as="geometry" />
        </mxCell>
        <mxCell id="ppYeGMJP4Vg2n3mMBXnk-156" value="" style="line;strokeWidth=2;direction=south;html=1;" parent="1" vertex="1">
          <mxGeometry x="409.61" y="160" width="10" height="40" as="geometry" />
        </mxCell>
        <mxCell id="ppYeGMJP4Vg2n3mMBXnk-157" value="" style="line;strokeWidth=2;direction=south;html=1;" parent="1" vertex="1">
          <mxGeometry x="580.0000000000002" y="160" width="10" height="40" as="geometry" />
        </mxCell>
        <mxCell id="ppYeGMJP4Vg2n3mMBXnk-158" value="" style="line;strokeWidth=2;direction=south;html=1;" parent="1" vertex="1">
          <mxGeometry x="500" y="160" width="10" height="40" as="geometry" />
        </mxCell>
        <mxCell id="ppYeGMJP4Vg2n3mMBXnk-159" value="&lt;font style=&quot;font-size: 18px;&quot;&gt;Name&lt;/font&gt;" style="text;html=1;align=center;verticalAlign=middle;resizable=0;points=[];autosize=1;strokeColor=none;fillColor=none;" parent="1" vertex="1">
          <mxGeometry x="339.61" y="160" width="70" height="40" as="geometry" />
        </mxCell>
        <mxCell id="ppYeGMJP4Vg2n3mMBXnk-160" value="&lt;font style=&quot;font-size: 18px;&quot;&gt;Address&lt;/font&gt;" style="text;html=1;align=center;verticalAlign=middle;resizable=0;points=[];autosize=1;strokeColor=none;fillColor=none;" parent="1" vertex="1">
          <mxGeometry x="410.00000000000006" y="160" width="90" height="40" as="geometry" />
        </mxCell>
        <mxCell id="ppYeGMJP4Vg2n3mMBXnk-162" value="&lt;font style=&quot;font-size: 18px;&quot;&gt;Month&lt;/font&gt;" style="text;html=1;align=center;verticalAlign=middle;resizable=0;points=[];autosize=1;strokeColor=none;fillColor=none;" parent="1" vertex="1">
          <mxGeometry x="510.0000000000001" y="160" width="70" height="40" as="geometry" />
        </mxCell>
        <mxCell id="ppYeGMJP4Vg2n3mMBXnk-163" value="" style="line;strokeWidth=2;direction=south;html=1;" parent="1" vertex="1">
          <mxGeometry x="650.0000000000001" y="160" width="10" height="40" as="geometry" />
        </mxCell>
        <mxCell id="ppYeGMJP4Vg2n3mMBXnk-164" value="Day" style="text;html=1;align=center;verticalAlign=middle;resizable=0;points=[];autosize=1;strokeColor=none;fillColor=none;fontSize=18;" parent="1" vertex="1">
          <mxGeometry x="590" y="160" width="60" height="40" as="geometry" />
        </mxCell>
        <mxCell id="ppYeGMJP4Vg2n3mMBXnk-165" value="" style="line;strokeWidth=2;direction=south;html=1;" parent="1" vertex="1">
          <mxGeometry x="700" y="160" width="10" height="40" as="geometry" />
        </mxCell>
        <mxCell id="ppYeGMJP4Vg2n3mMBXnk-167" value="" style="line;strokeWidth=2;direction=south;html=1;" parent="1" vertex="1">
          <mxGeometry x="780.0000000000001" y="160" width="10" height="40" as="geometry" />
        </mxCell>
        <mxCell id="ppYeGMJP4Vg2n3mMBXnk-168" value="&lt;font style=&quot;font-size: 18px;&quot;&gt;Year&lt;/font&gt;" style="text;html=1;align=center;verticalAlign=middle;resizable=0;points=[];autosize=1;strokeColor=none;fillColor=none;" parent="1" vertex="1">
          <mxGeometry x="649.9999999999999" y="160" width="60" height="40" as="geometry" />
        </mxCell>
        <mxCell id="ppYeGMJP4Vg2n3mMBXnk-171" value="&lt;font style=&quot;font-size: 18px;&quot;&gt;Gender&lt;/font&gt;" style="text;html=1;align=center;verticalAlign=middle;resizable=0;points=[];autosize=1;strokeColor=none;fillColor=none;" parent="1" vertex="1">
          <mxGeometry x="699.9999999999999" y="160" width="80" height="40" as="geometry" />
        </mxCell>
        <mxCell id="ppYeGMJP4Vg2n3mMBXnk-172" value="&lt;font style=&quot;font-size: 18px;&quot;&gt;Position&lt;/font&gt;" style="text;html=1;align=center;verticalAlign=middle;resizable=0;points=[];autosize=1;strokeColor=none;fillColor=none;" parent="1" vertex="1">
          <mxGeometry x="789.9999999999999" y="160" width="90" height="40" as="geometry" />
        </mxCell>
        <mxCell id="ppYeGMJP4Vg2n3mMBXnk-173" value="" style="line;strokeWidth=2;direction=south;html=1;" parent="1" vertex="1">
          <mxGeometry x="880.0000000000001" y="160" width="10" height="40" as="geometry" />
        </mxCell>
        <mxCell id="ppYeGMJP4Vg2n3mMBXnk-174" value="" style="line;strokeWidth=2;direction=south;html=1;" parent="1" vertex="1">
          <mxGeometry x="320.98" y="450" width="10" height="40" as="geometry" />
        </mxCell>
        <mxCell id="ppYeGMJP4Vg2n3mMBXnk-175" value="" style="rounded=0;whiteSpace=wrap;html=1;fillColor=none;" parent="1" vertex="1">
          <mxGeometry x="270.97999999999996" y="450" width="624.16" height="40" as="geometry" />
        </mxCell>
        <mxCell id="ppYeGMJP4Vg2n3mMBXnk-176" value="&lt;font style=&quot;font-size: 20px;&quot;&gt;&lt;b style=&quot;&quot;&gt;Aircraft_Crew&lt;/b&gt;&lt;/font&gt;" style="text;html=1;align=center;verticalAlign=middle;resizable=0;points=[];autosize=1;strokeColor=none;fillColor=none;" parent="1" vertex="1">
          <mxGeometry x="265.23" y="410" width="150" height="40" as="geometry" />
        </mxCell>
        <mxCell id="ppYeGMJP4Vg2n3mMBXnk-177" value="&lt;font style=&quot;font-size: 18px;&quot;&gt;ID&lt;/font&gt;" style="text;html=1;align=center;verticalAlign=middle;resizable=0;points=[];autosize=1;strokeColor=none;fillColor=none;" parent="1" vertex="1">
          <mxGeometry x="275.14" y="450" width="40" height="40" as="geometry" />
        </mxCell>
        <mxCell id="ppYeGMJP4Vg2n3mMBXnk-178" value="" style="line;strokeWidth=4;html=1;perimeter=backbonePerimeter;points=[];outlineConnect=0;" parent="1" vertex="1">
          <mxGeometry x="285.14" y="480" width="30" height="10" as="geometry" />
        </mxCell>
        <mxCell id="ppYeGMJP4Vg2n3mMBXnk-179" value="" style="line;strokeWidth=2;direction=south;html=1;" parent="1" vertex="1">
          <mxGeometry x="400.98" y="450" width="10" height="40" as="geometry" />
        </mxCell>
        <mxCell id="ppYeGMJP4Vg2n3mMBXnk-180" value="" style="line;strokeWidth=2;direction=south;html=1;" parent="1" vertex="1">
          <mxGeometry x="633.41" y="553.5" width="10" height="40" as="geometry" />
        </mxCell>
        <mxCell id="ppYeGMJP4Vg2n3mMBXnk-181" value="&lt;font style=&quot;font-size: 18px;&quot;&gt;Model&lt;/font&gt;" style="text;html=1;align=center;verticalAlign=middle;resizable=0;points=[];autosize=1;strokeColor=none;fillColor=none;" parent="1" vertex="1">
          <mxGeometry x="330.98" y="450" width="70" height="40" as="geometry" />
        </mxCell>
        <mxCell id="ppYeGMJP4Vg2n3mMBXnk-183" value="&lt;span style=&quot;font-size: 18px;&quot;&gt;Capacity&lt;/span&gt;" style="text;html=1;align=center;verticalAlign=middle;resizable=0;points=[];autosize=1;strokeColor=none;fillColor=none;" parent="1" vertex="1">
          <mxGeometry x="405.74" y="450" width="90" height="40" as="geometry" />
        </mxCell>
        <mxCell id="ppYeGMJP4Vg2n3mMBXnk-184" value="" style="line;strokeWidth=2;direction=south;html=1;" parent="1" vertex="1">
          <mxGeometry x="315.90999999999997" y="553.5" width="10" height="40" as="geometry" />
        </mxCell>
        <mxCell id="ppYeGMJP4Vg2n3mMBXnk-185" value="" style="rounded=0;whiteSpace=wrap;html=1;fillColor=none;" parent="1" vertex="1">
          <mxGeometry x="265.90999999999997" y="553.5" width="484.76" height="40" as="geometry" />
        </mxCell>
        <mxCell id="ppYeGMJP4Vg2n3mMBXnk-186" value="&lt;font style=&quot;font-size: 20px;&quot;&gt;&lt;b style=&quot;&quot;&gt;Route&lt;/b&gt;&lt;/font&gt;" style="text;html=1;align=center;verticalAlign=middle;resizable=0;points=[];autosize=1;strokeColor=none;fillColor=none;" parent="1" vertex="1">
          <mxGeometry x="261.86999999999995" y="513.5" width="80" height="40" as="geometry" />
        </mxCell>
        <mxCell id="ppYeGMJP4Vg2n3mMBXnk-187" value="&lt;font style=&quot;font-size: 18px;&quot;&gt;ID&lt;/font&gt;" style="text;html=1;align=center;verticalAlign=middle;resizable=0;points=[];autosize=1;strokeColor=none;fillColor=none;" parent="1" vertex="1">
          <mxGeometry x="270.97999999999996" y="554" width="40" height="40" as="geometry" />
        </mxCell>
        <mxCell id="ppYeGMJP4Vg2n3mMBXnk-188" value="" style="line;strokeWidth=4;html=1;perimeter=backbonePerimeter;points=[];outlineConnect=0;" parent="1" vertex="1">
          <mxGeometry x="275.97999999999996" y="583.5" width="30" height="10" as="geometry" />
        </mxCell>
        <mxCell id="ppYeGMJP4Vg2n3mMBXnk-189" value="" style="line;strokeWidth=2;direction=south;html=1;" parent="1" vertex="1">
          <mxGeometry x="395.90999999999997" y="553.5" width="10" height="40" as="geometry" />
        </mxCell>
        <mxCell id="ppYeGMJP4Vg2n3mMBXnk-190" value="" style="line;strokeWidth=2;direction=south;html=1;" parent="1" vertex="1">
          <mxGeometry x="537.2099999999999" y="553.5" width="10" height="40" as="geometry" />
        </mxCell>
        <mxCell id="ppYeGMJP4Vg2n3mMBXnk-191" value="&lt;font style=&quot;font-size: 18px;&quot;&gt;Orgin&lt;/font&gt;" style="text;html=1;align=center;verticalAlign=middle;resizable=0;points=[];autosize=1;strokeColor=none;fillColor=none;" parent="1" vertex="1">
          <mxGeometry x="325.90999999999997" y="553.5" width="70" height="40" as="geometry" />
        </mxCell>
        <mxCell id="ppYeGMJP4Vg2n3mMBXnk-192" value="&lt;span style=&quot;font-size: 18px;&quot;&gt;Distance&lt;/span&gt;" style="text;html=1;align=center;verticalAlign=middle;resizable=0;points=[];autosize=1;strokeColor=none;fillColor=none;" parent="1" vertex="1">
          <mxGeometry x="542.58" y="553.5" width="90" height="40" as="geometry" />
        </mxCell>
        <mxCell id="ppYeGMJP4Vg2n3mMBXnk-193" value="&lt;span style=&quot;font-size: 18px;&quot;&gt;Classification&lt;/span&gt;" style="text;html=1;align=center;verticalAlign=middle;resizable=0;points=[];autosize=1;strokeColor=none;fillColor=none;" parent="1" vertex="1">
          <mxGeometry x="406.41999999999996" y="553.5" width="130" height="40" as="geometry" />
        </mxCell>
        <mxCell id="ppYeGMJP4Vg2n3mMBXnk-194" value="" style="line;strokeWidth=2;direction=south;html=1;" parent="1" vertex="1">
          <mxGeometry x="324.82" y="660" width="10" height="40" as="geometry" />
        </mxCell>
        <mxCell id="ppYeGMJP4Vg2n3mMBXnk-195" value="" style="rounded=0;whiteSpace=wrap;html=1;fillColor=none;" parent="1" vertex="1">
          <mxGeometry x="274.82" y="660" width="410.32" height="40" as="geometry" />
        </mxCell>
        <mxCell id="ppYeGMJP4Vg2n3mMBXnk-196" value="&lt;font style=&quot;font-size: 20px;&quot;&gt;&lt;b style=&quot;&quot;&gt;Transaction&amp;nbsp;&lt;/b&gt;&lt;/font&gt;" style="text;html=1;align=center;verticalAlign=middle;resizable=0;points=[];autosize=1;strokeColor=none;fillColor=none;" parent="1" vertex="1">
          <mxGeometry x="259.92999999999995" y="620" width="140" height="40" as="geometry" />
        </mxCell>
        <mxCell id="ppYeGMJP4Vg2n3mMBXnk-197" value="&lt;font style=&quot;font-size: 18px;&quot;&gt;ID&lt;/font&gt;" style="text;html=1;align=center;verticalAlign=middle;resizable=0;points=[];autosize=1;strokeColor=none;fillColor=none;" parent="1" vertex="1">
          <mxGeometry x="279.82" y="660" width="40" height="40" as="geometry" />
        </mxCell>
        <mxCell id="ppYeGMJP4Vg2n3mMBXnk-198" value="" style="line;strokeWidth=4;html=1;perimeter=backbonePerimeter;points=[];outlineConnect=0;" parent="1" vertex="1">
          <mxGeometry x="284.82" y="690" width="30" height="10" as="geometry" />
        </mxCell>
        <mxCell id="ppYeGMJP4Vg2n3mMBXnk-199" value="" style="line;strokeWidth=2;direction=south;html=1;" parent="1" vertex="1">
          <mxGeometry x="396.13" y="660" width="10" height="40" as="geometry" />
        </mxCell>
        <mxCell id="ppYeGMJP4Vg2n3mMBXnk-200" value="" style="line;strokeWidth=2;direction=south;html=1;" parent="1" vertex="1">
          <mxGeometry x="511.96000000000004" y="660" width="10" height="40" as="geometry" />
        </mxCell>
        <mxCell id="ppYeGMJP4Vg2n3mMBXnk-201" value="&lt;font style=&quot;font-size: 18px;&quot;&gt;Date&lt;/font&gt;" style="text;html=1;align=center;verticalAlign=middle;resizable=0;points=[];autosize=1;strokeColor=none;fillColor=none;" parent="1" vertex="1">
          <mxGeometry x="337.07" y="660" width="60" height="40" as="geometry" />
        </mxCell>
        <mxCell id="ppYeGMJP4Vg2n3mMBXnk-202" value="&lt;span style=&quot;font-size: 18px;&quot;&gt;Amount&lt;/span&gt;" style="text;html=1;align=center;verticalAlign=middle;resizable=0;points=[];autosize=1;strokeColor=none;fillColor=none;" parent="1" vertex="1">
          <mxGeometry x="517.2200000000001" y="660" width="90" height="40" as="geometry" />
        </mxCell>
        <mxCell id="ppYeGMJP4Vg2n3mMBXnk-203" value="&lt;span style=&quot;font-size: 18px;&quot;&gt;Description&lt;/span&gt;" style="text;html=1;align=center;verticalAlign=middle;resizable=0;points=[];autosize=1;strokeColor=none;fillColor=none;" parent="1" vertex="1">
          <mxGeometry x="402.93" y="660" width="110" height="40" as="geometry" />
        </mxCell>
        <mxCell id="ppYeGMJP4Vg2n3mMBXnk-204" value="" style="line;strokeWidth=2;direction=south;html=1;" parent="1" vertex="1">
          <mxGeometry x="493.73999999999995" y="450" width="10" height="40" as="geometry" />
        </mxCell>
        <mxCell id="ppYeGMJP4Vg2n3mMBXnk-207" value="&lt;font style=&quot;font-size: 18px;&quot;&gt;Host1&lt;/font&gt;" style="text;html=1;align=center;verticalAlign=middle;resizable=0;points=[];autosize=1;strokeColor=none;fillColor=none;" parent="1" vertex="1">
          <mxGeometry x="495.74" y="450" width="70" height="40" as="geometry" />
        </mxCell>
        <mxCell id="ppYeGMJP4Vg2n3mMBXnk-209" value="" style="line;strokeWidth=2;direction=south;html=1;" parent="1" vertex="1">
          <mxGeometry x="556.14" y="450" width="10" height="40" as="geometry" />
        </mxCell>
        <mxCell id="ppYeGMJP4Vg2n3mMBXnk-210" value="" style="line;strokeWidth=2;direction=south;html=1;" parent="1" vertex="1">
          <mxGeometry x="624.54" y="450" width="10" height="40" as="geometry" />
        </mxCell>
        <mxCell id="ppYeGMJP4Vg2n3mMBXnk-211" value="&lt;font style=&quot;font-size: 18px;&quot;&gt;Host2&lt;/font&gt;" style="text;html=1;align=center;verticalAlign=middle;resizable=0;points=[];autosize=1;strokeColor=none;fillColor=none;" parent="1" vertex="1">
          <mxGeometry x="559.3" y="450" width="70" height="40" as="geometry" />
        </mxCell>
        <mxCell id="ppYeGMJP4Vg2n3mMBXnk-212" value="&lt;span style=&quot;font-size: 18px;&quot;&gt;AssisPilot&lt;/span&gt;" style="text;html=1;align=center;verticalAlign=middle;resizable=0;points=[];autosize=1;strokeColor=none;fillColor=none;" parent="1" vertex="1">
          <mxGeometry x="714.5400000000001" y="450" width="100" height="40" as="geometry" />
        </mxCell>
        <mxCell id="ppYeGMJP4Vg2n3mMBXnk-213" value="&lt;span style=&quot;font-size: 18px;&quot;&gt;MajPilot&lt;/span&gt;" style="text;html=1;align=center;verticalAlign=middle;resizable=0;points=[];autosize=1;strokeColor=none;fillColor=none;" parent="1" vertex="1">
          <mxGeometry x="630.24" y="450" width="90" height="40" as="geometry" />
        </mxCell>
        <mxCell id="ppYeGMJP4Vg2n3mMBXnk-215" value="&lt;font style=&quot;font-size: 18px;&quot;&gt;Destination&lt;/font&gt;" style="text;html=1;align=center;verticalAlign=middle;resizable=0;points=[];autosize=1;strokeColor=none;fillColor=none;" parent="1" vertex="1">
          <mxGeometry x="638.52" y="553.5" width="110" height="40" as="geometry" />
        </mxCell>
        <mxCell id="ppYeGMJP4Vg2n3mMBXnk-226" value="" style="line;strokeWidth=2;direction=south;html=1;" parent="1" vertex="1">
          <mxGeometry x="712.74" y="450" width="10" height="40" as="geometry" />
        </mxCell>
        <mxCell id="ppYeGMJP4Vg2n3mMBXnk-229" value="&lt;font style=&quot;font-size: 18px;&quot;&gt;ID_A&lt;/font&gt;" style="text;html=1;align=center;verticalAlign=middle;resizable=0;points=[];autosize=1;strokeColor=none;fillColor=none;" parent="1" vertex="1">
          <mxGeometry x="890" y="160" width="60" height="40" as="geometry" />
        </mxCell>
        <mxCell id="ppYeGMJP4Vg2n3mMBXnk-230" value="" style="line;strokeWidth=2;html=1;dashed=1;" parent="1" vertex="1">
          <mxGeometry x="890" y="190" width="52.25" height="10" as="geometry" />
        </mxCell>
        <mxCell id="ppYeGMJP4Vg2n3mMBXnk-231" value="" style="line;strokeWidth=2;direction=south;html=1;" parent="1" vertex="1">
          <mxGeometry x="814.54" y="450" width="10" height="40" as="geometry" />
        </mxCell>
        <mxCell id="ppYeGMJP4Vg2n3mMBXnk-232" value="&lt;font style=&quot;font-size: 18px;&quot;&gt;ID_A&lt;/font&gt;" style="text;html=1;align=center;verticalAlign=middle;resizable=0;points=[];autosize=1;strokeColor=none;fillColor=none;" parent="1" vertex="1">
          <mxGeometry x="824.54" y="450" width="60" height="40" as="geometry" />
        </mxCell>
        <mxCell id="ppYeGMJP4Vg2n3mMBXnk-233" value="" style="line;strokeWidth=2;html=1;dashed=1;" parent="1" vertex="1">
          <mxGeometry x="831.6999999999999" y="480" width="52.25" height="10" as="geometry" />
        </mxCell>
        <mxCell id="ppYeGMJP4Vg2n3mMBXnk-234" value="" style="line;strokeWidth=2;direction=south;html=1;" parent="1" vertex="1">
          <mxGeometry x="603.41" y="660" width="10" height="40" as="geometry" />
        </mxCell>
        <mxCell id="ppYeGMJP4Vg2n3mMBXnk-235" value="&lt;font style=&quot;font-size: 18px;&quot;&gt;ID_A&lt;/font&gt;" style="text;html=1;align=center;verticalAlign=middle;resizable=0;points=[];autosize=1;strokeColor=none;fillColor=none;" parent="1" vertex="1">
          <mxGeometry x="608.41" y="660" width="60" height="40" as="geometry" />
        </mxCell>
        <mxCell id="ppYeGMJP4Vg2n3mMBXnk-236" value="" style="line;strokeWidth=2;html=1;dashed=1;" parent="1" vertex="1">
          <mxGeometry x="616.16" y="690" width="52.25" height="10" as="geometry" />
        </mxCell>
        <mxCell id="ppYeGMJP4Vg2n3mMBXnk-237" value="" style="endArrow=classic;html=1;rounded=0;edgeStyle=orthogonalEdgeStyle;exitX=1;exitY=0.5;exitDx=0;exitDy=0;" parent="1" source="ppYeGMJP4Vg2n3mMBXnk-152" edge="1">
          <mxGeometry width="50" height="50" relative="1" as="geometry">
            <mxPoint x="710" y="340" as="sourcePoint" />
            <mxPoint x="308" y="100" as="targetPoint" />
            <Array as="points">
              <mxPoint x="1150" y="190" />
              <mxPoint x="1150" y="120" />
              <mxPoint x="308" y="120" />
            </Array>
          </mxGeometry>
        </mxCell>
        <mxCell id="ppYeGMJP4Vg2n3mMBXnk-238" value="" style="endArrow=classic;html=1;rounded=0;edgeStyle=orthogonalEdgeStyle;entryX=0.002;entryY=0.828;entryDx=0;entryDy=0;entryPerimeter=0;exitX=0.567;exitY=0.001;exitDx=0;exitDy=0;exitPerimeter=0;" parent="1" source="ppYeGMJP4Vg2n3mMBXnk-232" target="ppYeGMJP4Vg2n3mMBXnk-140" edge="1">
          <mxGeometry width="50" height="50" relative="1" as="geometry">
            <mxPoint x="861" y="358" as="sourcePoint" />
            <mxPoint x="820" y="260" as="targetPoint" />
            <Array as="points">
              <mxPoint x="859" y="360" />
              <mxPoint x="859" y="360" />
              <mxPoint x="859" y="310" />
              <mxPoint x="220" y="310" />
              <mxPoint x="220" y="93" />
            </Array>
          </mxGeometry>
        </mxCell>
        <mxCell id="ppYeGMJP4Vg2n3mMBXnk-239" value="" style="endArrow=classic;html=1;rounded=0;edgeStyle=orthogonalEdgeStyle;entryX=0;entryY=0.25;entryDx=0;entryDy=0;" parent="1" source="ppYeGMJP4Vg2n3mMBXnk-195" target="ppYeGMJP4Vg2n3mMBXnk-140" edge="1">
          <mxGeometry width="50" height="50" relative="1" as="geometry">
            <mxPoint x="652" y="560" as="sourcePoint" />
            <mxPoint x="190" y="110" as="targetPoint" />
            <Array as="points">
              <mxPoint x="651" y="620" />
              <mxPoint x="190" y="620" />
              <mxPoint x="190" y="70" />
            </Array>
          </mxGeometry>
        </mxCell>
        <mxCell id="ppYeGMJP4Vg2n3mMBXnk-240" value="" style="line;strokeWidth=2;direction=south;html=1;" parent="1" vertex="1">
          <mxGeometry x="346.66" y="750" width="10" height="40" as="geometry" />
        </mxCell>
        <mxCell id="ppYeGMJP4Vg2n3mMBXnk-241" value="" style="rounded=0;whiteSpace=wrap;html=1;fillColor=none;" parent="1" vertex="1">
          <mxGeometry x="284.02" y="750" width="665.91" height="40" as="geometry" />
        </mxCell>
        <mxCell id="ppYeGMJP4Vg2n3mMBXnk-242" value="&lt;font style=&quot;font-size: 20px;&quot;&gt;&lt;b style=&quot;&quot;&gt;Aircraft_Route&lt;/b&gt;&lt;/font&gt;" style="text;html=1;align=center;verticalAlign=middle;resizable=0;points=[];autosize=1;strokeColor=none;fillColor=none;" parent="1" vertex="1">
          <mxGeometry x="271.66" y="710" width="160" height="40" as="geometry" />
        </mxCell>
        <mxCell id="ppYeGMJP4Vg2n3mMBXnk-243" value="&lt;font style=&quot;font-size: 18px;&quot;&gt;ID_A&lt;/font&gt;" style="text;html=1;align=center;verticalAlign=middle;resizable=0;points=[];autosize=1;strokeColor=none;fillColor=none;" parent="1" vertex="1">
          <mxGeometry x="286.66" y="750" width="60" height="40" as="geometry" />
        </mxCell>
        <mxCell id="ppYeGMJP4Vg2n3mMBXnk-245" value="" style="line;strokeWidth=2;direction=south;html=1;" parent="1" vertex="1">
          <mxGeometry x="414.22999999999996" y="750" width="10" height="40" as="geometry" />
        </mxCell>
        <mxCell id="ppYeGMJP4Vg2n3mMBXnk-246" value="&lt;font style=&quot;font-size: 18px;&quot;&gt;ID_R&lt;/font&gt;" style="text;html=1;align=center;verticalAlign=middle;resizable=0;points=[];autosize=1;strokeColor=none;fillColor=none;" parent="1" vertex="1">
          <mxGeometry x="354.23" y="750" width="60" height="40" as="geometry" />
        </mxCell>
        <mxCell id="ppYeGMJP4Vg2n3mMBXnk-247" value="&lt;span style=&quot;font-size: 18px;&quot;&gt;Price&lt;/span&gt;" style="text;html=1;align=center;verticalAlign=middle;resizable=0;points=[];autosize=1;strokeColor=none;fillColor=none;" parent="1" vertex="1">
          <mxGeometry x="421.21000000000004" y="750" width="60" height="40" as="geometry" />
        </mxCell>
        <mxCell id="ppYeGMJP4Vg2n3mMBXnk-248" value="" style="line;strokeWidth=2;direction=south;html=1;" parent="1" vertex="1">
          <mxGeometry x="483.06" y="750" width="10" height="40" as="geometry" />
        </mxCell>
        <mxCell id="ppYeGMJP4Vg2n3mMBXnk-249" value="&lt;font style=&quot;font-size: 18px;&quot;&gt;Arrival&lt;/font&gt;" style="text;html=1;align=center;verticalAlign=middle;resizable=0;points=[];autosize=1;strokeColor=none;fillColor=none;" parent="1" vertex="1">
          <mxGeometry x="687.67" y="750" width="70" height="40" as="geometry" />
        </mxCell>
        <mxCell id="ppYeGMJP4Vg2n3mMBXnk-250" value="" style="line;strokeWidth=2;direction=south;html=1;" parent="1" vertex="1">
          <mxGeometry x="572.53" y="750" width="10" height="40" as="geometry" />
        </mxCell>
        <mxCell id="ppYeGMJP4Vg2n3mMBXnk-251" value="" style="line;strokeWidth=2;direction=south;html=1;" parent="1" vertex="1">
          <mxGeometry x="679.93" y="750" width="10" height="40" as="geometry" />
        </mxCell>
        <mxCell id="ppYeGMJP4Vg2n3mMBXnk-252" value="&lt;font style=&quot;font-size: 18px;&quot;&gt;Duration&lt;/font&gt;" style="text;html=1;align=center;verticalAlign=middle;resizable=0;points=[];autosize=1;strokeColor=none;fillColor=none;" parent="1" vertex="1">
          <mxGeometry x="485.53" y="750" width="90" height="40" as="geometry" />
        </mxCell>
        <mxCell id="ppYeGMJP4Vg2n3mMBXnk-253" value="&lt;span style=&quot;font-size: 18px;&quot;&gt;NumOfPassengers&lt;/span&gt;" style="text;html=1;align=center;verticalAlign=middle;resizable=0;points=[];autosize=1;strokeColor=none;fillColor=none;" parent="1" vertex="1">
          <mxGeometry x="769.9300000000001" y="750" width="180" height="40" as="geometry" />
        </mxCell>
        <mxCell id="ppYeGMJP4Vg2n3mMBXnk-254" value="&lt;span style=&quot;font-size: 18px;&quot;&gt;Departure&lt;/span&gt;" style="text;html=1;align=center;verticalAlign=middle;resizable=0;points=[];autosize=1;strokeColor=none;fillColor=none;" parent="1" vertex="1">
          <mxGeometry x="579.93" y="750" width="100" height="40" as="geometry" />
        </mxCell>
        <mxCell id="ppYeGMJP4Vg2n3mMBXnk-255" value="" style="line;strokeWidth=2;direction=south;html=1;" parent="1" vertex="1">
          <mxGeometry x="763.3100000000001" y="750" width="10" height="40" as="geometry" />
        </mxCell>
        <mxCell id="ppYeGMJP4Vg2n3mMBXnk-258" value="" style="line;strokeWidth=2;html=1;dashed=1;" parent="1" vertex="1">
          <mxGeometry x="290.77" y="780" width="52.25" height="10" as="geometry" />
        </mxCell>
        <mxCell id="ppYeGMJP4Vg2n3mMBXnk-259" value="" style="endArrow=classic;html=1;rounded=0;edgeStyle=orthogonalEdgeStyle;exitX=0;exitY=0.5;exitDx=0;exitDy=0;entryX=0;entryY=0.5;entryDx=0;entryDy=0;" parent="1" source="ppYeGMJP4Vg2n3mMBXnk-241" target="ppYeGMJP4Vg2n3mMBXnk-175" edge="1">
          <mxGeometry width="50" height="50" relative="1" as="geometry">
            <mxPoint x="333.93" y="754" as="sourcePoint" />
            <mxPoint x="519.93" y="610" as="targetPoint" />
            <Array as="points">
              <mxPoint x="140" y="770" />
              <mxPoint x="140" y="470" />
            </Array>
          </mxGeometry>
        </mxCell>
        <mxCell id="ppYeGMJP4Vg2n3mMBXnk-260" value="" style="endArrow=classic;html=1;rounded=0;edgeStyle=orthogonalEdgeStyle;exitX=0.145;exitY=0.987;exitDx=0;exitDy=0;exitPerimeter=0;" parent="1" source="ppYeGMJP4Vg2n3mMBXnk-241" target="ppYeGMJP4Vg2n3mMBXnk-188" edge="1">
          <mxGeometry width="50" height="50" relative="1" as="geometry">
            <mxPoint x="639.93" y="550" as="sourcePoint" />
            <mxPoint x="689.93" y="500" as="targetPoint" />
            <Array as="points">
              <mxPoint x="380.93" y="820" />
              <mxPoint x="1039.93" y="820" />
              <mxPoint x="1039.93" y="610" />
              <mxPoint x="293.93" y="610" />
            </Array>
          </mxGeometry>
        </mxCell>
        <mxCell id="ppYeGMJP4Vg2n3mMBXnk-262" value="" style="line;strokeWidth=2;html=1;dashed=1;" parent="1" vertex="1">
          <mxGeometry x="359.78" y="780" width="52.25" height="10" as="geometry" />
        </mxCell>
        <mxCell id="ppYeGMJP4Vg2n3mMBXnk-263" value="" style="line;strokeWidth=2;direction=south;html=1;" parent="1" vertex="1">
          <mxGeometry x="588.87" y="890" width="10" height="40" as="geometry" />
        </mxCell>
        <mxCell id="ppYeGMJP4Vg2n3mMBXnk-264" value="" style="rounded=0;whiteSpace=wrap;html=1;fillColor=none;" parent="1" vertex="1">
          <mxGeometry x="538.87" y="890" width="360.96" height="40" as="geometry" />
        </mxCell>
        <mxCell id="ppYeGMJP4Vg2n3mMBXnk-265" value="&lt;font style=&quot;font-size: 20px;&quot;&gt;&lt;b style=&quot;&quot;&gt;Patient&lt;/b&gt;&lt;/font&gt;" style="text;html=1;align=center;verticalAlign=middle;resizable=0;points=[];autosize=1;strokeColor=none;fillColor=none;" parent="1" vertex="1">
          <mxGeometry x="519.83" y="850" width="90" height="40" as="geometry" />
        </mxCell>
        <mxCell id="ppYeGMJP4Vg2n3mMBXnk-266" value="&lt;font style=&quot;font-size: 18px;&quot;&gt;ID&lt;/font&gt;" style="text;html=1;align=center;verticalAlign=middle;resizable=0;points=[];autosize=1;strokeColor=none;fillColor=none;" parent="1" vertex="1">
          <mxGeometry x="549.9100000000001" y="890" width="40" height="40" as="geometry" />
        </mxCell>
        <mxCell id="ppYeGMJP4Vg2n3mMBXnk-267" value="" style="line;strokeWidth=4;html=1;perimeter=backbonePerimeter;points=[];outlineConnect=0;" parent="1" vertex="1">
          <mxGeometry x="549.91" y="920" width="40" height="10" as="geometry" />
        </mxCell>
        <mxCell id="ppYeGMJP4Vg2n3mMBXnk-268" value="" style="line;strokeWidth=2;direction=south;html=1;" parent="1" vertex="1">
          <mxGeometry x="668.87" y="890" width="10" height="40" as="geometry" />
        </mxCell>
        <mxCell id="ppYeGMJP4Vg2n3mMBXnk-269" value="" style="line;strokeWidth=2;direction=south;html=1;" parent="1" vertex="1">
          <mxGeometry x="669.8299999999998" y="1080" width="10" height="40" as="geometry" />
        </mxCell>
        <mxCell id="ppYeGMJP4Vg2n3mMBXnk-270" value="&lt;font style=&quot;font-size: 18px;&quot;&gt;Name&lt;/font&gt;" style="text;html=1;align=center;verticalAlign=middle;resizable=0;points=[];autosize=1;strokeColor=none;fillColor=none;" parent="1" vertex="1">
          <mxGeometry x="598.87" y="890" width="70" height="40" as="geometry" />
        </mxCell>
        <mxCell id="ppYeGMJP4Vg2n3mMBXnk-272" value="&lt;span style=&quot;font-size: 18px;&quot;&gt;DoB&lt;/span&gt;" style="text;html=1;align=center;verticalAlign=middle;resizable=0;points=[];autosize=1;strokeColor=none;fillColor=none;" parent="1" vertex="1">
          <mxGeometry x="679.8299999999999" y="890" width="60" height="40" as="geometry" />
        </mxCell>
        <mxCell id="ppYeGMJP4Vg2n3mMBXnk-283" value="" style="line;strokeWidth=2;direction=south;html=1;" parent="1" vertex="1">
          <mxGeometry x="588.87" y="980" width="10" height="40" as="geometry" />
        </mxCell>
        <mxCell id="ppYeGMJP4Vg2n3mMBXnk-284" value="" style="rounded=0;whiteSpace=wrap;html=1;fillColor=none;" parent="1" vertex="1">
          <mxGeometry x="538.87" y="980" width="140.96" height="40" as="geometry" />
        </mxCell>
        <mxCell id="ppYeGMJP4Vg2n3mMBXnk-285" value="&lt;font style=&quot;font-size: 20px;&quot;&gt;&lt;b style=&quot;&quot;&gt;Consultant&lt;/b&gt;&lt;/font&gt;" style="text;html=1;align=center;verticalAlign=middle;resizable=0;points=[];autosize=1;strokeColor=none;fillColor=none;" parent="1" vertex="1">
          <mxGeometry x="519.83" y="940" width="130" height="40" as="geometry" />
        </mxCell>
        <mxCell id="ppYeGMJP4Vg2n3mMBXnk-286" value="&lt;font style=&quot;font-size: 18px;&quot;&gt;ID&lt;/font&gt;" style="text;html=1;align=center;verticalAlign=middle;resizable=0;points=[];autosize=1;strokeColor=none;fillColor=none;" parent="1" vertex="1">
          <mxGeometry x="539.83" y="980" width="40" height="40" as="geometry" />
        </mxCell>
        <mxCell id="ppYeGMJP4Vg2n3mMBXnk-287" value="" style="line;strokeWidth=4;html=1;perimeter=backbonePerimeter;points=[];outlineConnect=0;" parent="1" vertex="1">
          <mxGeometry x="548.87" y="1010" width="30" height="10" as="geometry" />
        </mxCell>
        <mxCell id="ppYeGMJP4Vg2n3mMBXnk-288" value="" style="line;strokeWidth=2;direction=south;html=1;" parent="1" vertex="1">
          <mxGeometry x="809.8299999999999" y="890" width="10" height="40" as="geometry" />
        </mxCell>
        <mxCell id="ppYeGMJP4Vg2n3mMBXnk-290" value="&lt;font style=&quot;font-size: 18px;&quot;&gt;Name&lt;/font&gt;" style="text;html=1;align=center;verticalAlign=middle;resizable=0;points=[];autosize=1;strokeColor=none;fillColor=none;" parent="1" vertex="1">
          <mxGeometry x="598.87" y="980" width="70" height="40" as="geometry" />
        </mxCell>
        <mxCell id="ppYeGMJP4Vg2n3mMBXnk-293" value="" style="line;strokeWidth=2;direction=south;html=1;" parent="1" vertex="1">
          <mxGeometry x="588.87" y="1080" width="10" height="40" as="geometry" />
        </mxCell>
        <mxCell id="ppYeGMJP4Vg2n3mMBXnk-294" value="" style="rounded=0;whiteSpace=wrap;html=1;fillColor=none;" parent="1" vertex="1">
          <mxGeometry x="538.87" y="1080" width="250.96" height="40" as="geometry" />
        </mxCell>
        <mxCell id="ppYeGMJP4Vg2n3mMBXnk-295" value="&lt;font style=&quot;font-size: 20px;&quot;&gt;&lt;b style=&quot;&quot;&gt;Ward&lt;/b&gt;&lt;/font&gt;" style="text;html=1;align=center;verticalAlign=middle;resizable=0;points=[];autosize=1;strokeColor=none;fillColor=none;" parent="1" vertex="1">
          <mxGeometry x="519.83" y="1040" width="70" height="40" as="geometry" />
        </mxCell>
        <mxCell id="ppYeGMJP4Vg2n3mMBXnk-296" value="&lt;font style=&quot;font-size: 18px;&quot;&gt;ID&lt;/font&gt;" style="text;html=1;align=center;verticalAlign=middle;resizable=0;points=[];autosize=1;strokeColor=none;fillColor=none;" parent="1" vertex="1">
          <mxGeometry x="543.87" y="1080" width="40" height="40" as="geometry" />
        </mxCell>
        <mxCell id="ppYeGMJP4Vg2n3mMBXnk-297" value="" style="line;strokeWidth=4;html=1;perimeter=backbonePerimeter;points=[];outlineConnect=0;" parent="1" vertex="1">
          <mxGeometry x="548.87" y="1110" width="30" height="10" as="geometry" />
        </mxCell>
        <mxCell id="ppYeGMJP4Vg2n3mMBXnk-298" value="" style="line;strokeWidth=2;direction=south;html=1;" parent="1" vertex="1">
          <mxGeometry x="769.8299999999999" y="1180" width="10" height="40" as="geometry" />
        </mxCell>
        <mxCell id="ppYeGMJP4Vg2n3mMBXnk-299" value="" style="line;strokeWidth=2;direction=south;html=1;" parent="1" vertex="1">
          <mxGeometry x="739.8299999999998" y="890" width="10" height="40" as="geometry" />
        </mxCell>
        <mxCell id="ppYeGMJP4Vg2n3mMBXnk-300" value="&lt;font style=&quot;font-size: 18px;&quot;&gt;Name&lt;/font&gt;" style="text;html=1;align=center;verticalAlign=middle;resizable=0;points=[];autosize=1;strokeColor=none;fillColor=none;" parent="1" vertex="1">
          <mxGeometry x="598.87" y="1080" width="70" height="40" as="geometry" />
        </mxCell>
        <mxCell id="ppYeGMJP4Vg2n3mMBXnk-304" value="" style="line;strokeWidth=2;direction=south;html=1;" parent="1" vertex="1">
          <mxGeometry x="629.83" y="1180" width="10" height="40" as="geometry" />
        </mxCell>
        <mxCell id="ppYeGMJP4Vg2n3mMBXnk-305" value="" style="rounded=0;whiteSpace=wrap;html=1;fillColor=none;" parent="1" vertex="1">
          <mxGeometry x="538.87" y="1180" width="320.96" height="40" as="geometry" />
        </mxCell>
        <mxCell id="ppYeGMJP4Vg2n3mMBXnk-306" value="&lt;font style=&quot;font-size: 20px;&quot;&gt;&lt;b style=&quot;&quot;&gt;Nurse&lt;/b&gt;&lt;/font&gt;" style="text;html=1;align=center;verticalAlign=middle;resizable=0;points=[];autosize=1;strokeColor=none;fillColor=none;" parent="1" vertex="1">
          <mxGeometry x="519.83" y="1140" width="80" height="40" as="geometry" />
        </mxCell>
        <mxCell id="ppYeGMJP4Vg2n3mMBXnk-307" value="&lt;font style=&quot;font-size: 18px;&quot;&gt;Number&lt;/font&gt;" style="text;html=1;align=center;verticalAlign=middle;resizable=0;points=[];autosize=1;strokeColor=none;fillColor=none;" parent="1" vertex="1">
          <mxGeometry x="539.83" y="1180" width="90" height="40" as="geometry" />
        </mxCell>
        <mxCell id="ppYeGMJP4Vg2n3mMBXnk-308" value="" style="line;strokeWidth=4;html=1;perimeter=backbonePerimeter;points=[];outlineConnect=0;" parent="1" vertex="1">
          <mxGeometry x="549.83" y="1210" width="70" height="10" as="geometry" />
        </mxCell>
        <mxCell id="ppYeGMJP4Vg2n3mMBXnk-309" value="" style="line;strokeWidth=2;direction=south;html=1;" parent="1" vertex="1">
          <mxGeometry x="689.8299999999999" y="1180" width="10" height="40" as="geometry" />
        </mxCell>
        <mxCell id="ppYeGMJP4Vg2n3mMBXnk-311" value="&lt;font style=&quot;font-size: 18px;&quot;&gt;Name&lt;/font&gt;" style="text;html=1;align=center;verticalAlign=middle;resizable=0;points=[];autosize=1;strokeColor=none;fillColor=none;" parent="1" vertex="1">
          <mxGeometry x="629.83" y="1180" width="70" height="40" as="geometry" />
        </mxCell>
        <mxCell id="ppYeGMJP4Vg2n3mMBXnk-312" value="&lt;span style=&quot;font-size: 18px;&quot;&gt;Address&lt;/span&gt;" style="text;html=1;align=center;verticalAlign=middle;resizable=0;points=[];autosize=1;strokeColor=none;fillColor=none;" parent="1" vertex="1">
          <mxGeometry x="689.83" y="1180" width="90" height="40" as="geometry" />
        </mxCell>
        <mxCell id="ppYeGMJP4Vg2n3mMBXnk-314" value="" style="line;strokeWidth=2;direction=south;html=1;" parent="1" vertex="1">
          <mxGeometry x="609.83" y="1280" width="10" height="40" as="geometry" />
        </mxCell>
        <mxCell id="ppYeGMJP4Vg2n3mMBXnk-315" value="" style="rounded=0;whiteSpace=wrap;html=1;fillColor=none;" parent="1" vertex="1">
          <mxGeometry x="539.83" y="1280" width="160" height="40" as="geometry" />
        </mxCell>
        <mxCell id="ppYeGMJP4Vg2n3mMBXnk-316" value="&lt;span style=&quot;font-size: 20px;&quot;&gt;&lt;b&gt;Drug&lt;/b&gt;&lt;/span&gt;" style="text;html=1;align=center;verticalAlign=middle;resizable=0;points=[];autosize=1;strokeColor=none;fillColor=none;" parent="1" vertex="1">
          <mxGeometry x="519.83" y="1240" width="70" height="40" as="geometry" />
        </mxCell>
        <mxCell id="ppYeGMJP4Vg2n3mMBXnk-317" value="&lt;font style=&quot;font-size: 18px;&quot;&gt;Code&lt;/font&gt;" style="text;html=1;align=center;verticalAlign=middle;resizable=0;points=[];autosize=1;strokeColor=none;fillColor=none;" parent="1" vertex="1">
          <mxGeometry x="539.91" y="1280" width="70" height="40" as="geometry" />
        </mxCell>
        <mxCell id="ppYeGMJP4Vg2n3mMBXnk-318" value="" style="line;strokeWidth=4;html=1;perimeter=backbonePerimeter;points=[];outlineConnect=0;" parent="1" vertex="1">
          <mxGeometry x="549.91" y="1310" width="50.96" height="10" as="geometry" />
        </mxCell>
        <mxCell id="ppYeGMJP4Vg2n3mMBXnk-319" value="" style="line;strokeWidth=2;direction=south;html=1;" parent="1" vertex="1">
          <mxGeometry x="829.91" y="1570" width="10" height="40" as="geometry" />
        </mxCell>
        <mxCell id="ppYeGMJP4Vg2n3mMBXnk-320" value="" style="line;strokeWidth=2;direction=south;html=1;" parent="1" vertex="1">
          <mxGeometry x="909.91" y="1570" width="10" height="40" as="geometry" />
        </mxCell>
        <mxCell id="ppYeGMJP4Vg2n3mMBXnk-321" value="&lt;font style=&quot;font-size: 18px;&quot;&gt;Dosage&lt;/font&gt;" style="text;html=1;align=center;verticalAlign=middle;resizable=0;points=[];autosize=1;strokeColor=none;fillColor=none;" parent="1" vertex="1">
          <mxGeometry x="609.83" y="1280" width="90" height="40" as="geometry" />
        </mxCell>
        <mxCell id="v32gDOaLkHWEdU6SIBLz-1" value="" style="line;strokeWidth=2;direction=south;html=1;" parent="1" vertex="1">
          <mxGeometry x="609.83" y="1380" width="10" height="40" as="geometry" />
        </mxCell>
        <mxCell id="v32gDOaLkHWEdU6SIBLz-2" value="" style="rounded=0;whiteSpace=wrap;html=1;fillColor=none;" parent="1" vertex="1">
          <mxGeometry x="539.83" y="1380" width="160" height="40" as="geometry" />
        </mxCell>
        <mxCell id="v32gDOaLkHWEdU6SIBLz-3" value="&lt;span style=&quot;font-size: 20px;&quot;&gt;&lt;b&gt;Drug_Brand&lt;/b&gt;&lt;/span&gt;" style="text;html=1;align=center;verticalAlign=middle;resizable=0;points=[];autosize=1;strokeColor=none;fillColor=none;" parent="1" vertex="1">
          <mxGeometry x="519.83" y="1340" width="140" height="40" as="geometry" />
        </mxCell>
        <mxCell id="v32gDOaLkHWEdU6SIBLz-4" value="&lt;font style=&quot;font-size: 18px;&quot;&gt;Code&lt;/font&gt;" style="text;html=1;align=center;verticalAlign=middle;resizable=0;points=[];autosize=1;strokeColor=none;fillColor=none;" parent="1" vertex="1">
          <mxGeometry x="539.83" y="1380" width="70" height="40" as="geometry" />
        </mxCell>
        <mxCell id="v32gDOaLkHWEdU6SIBLz-6" value="&lt;font style=&quot;font-size: 18px;&quot;&gt;Brand&lt;/font&gt;" style="text;html=1;align=center;verticalAlign=middle;resizable=0;points=[];autosize=1;strokeColor=none;fillColor=none;" parent="1" vertex="1">
          <mxGeometry x="619.83" y="1380" width="70" height="40" as="geometry" />
        </mxCell>
        <mxCell id="v32gDOaLkHWEdU6SIBLz-7" value="" style="line;strokeWidth=2;html=1;dashed=1;" parent="1" vertex="1">
          <mxGeometry x="549.83" y="1410" width="52.25" height="10" as="geometry" />
        </mxCell>
        <mxCell id="v32gDOaLkHWEdU6SIBLz-8" value="" style="endArrow=classic;html=1;rounded=0;fontFamily=Helvetica;fontSize=12;fontColor=default;autosize=1;resizable=0;edgeStyle=orthogonalEdgeStyle;exitX=0.216;exitY=1.044;exitDx=0;exitDy=0;exitPerimeter=0;" parent="1" source="v32gDOaLkHWEdU6SIBLz-2" edge="1">
          <mxGeometry width="50" height="50" relative="1" as="geometry">
            <mxPoint x="649.83" y="1320" as="sourcePoint" />
            <mxPoint x="539.91" y="1297" as="targetPoint" />
            <Array as="points">
              <mxPoint x="574.83" y="1430" />
              <mxPoint x="509.83000000000004" y="1430" />
              <mxPoint x="509.83000000000004" y="1297" />
            </Array>
          </mxGeometry>
        </mxCell>
        <mxCell id="v32gDOaLkHWEdU6SIBLz-9" value="&lt;font style=&quot;font-size: 18px;&quot;&gt;Number_N&lt;/font&gt;" style="text;html=1;align=center;verticalAlign=middle;resizable=0;points=[];autosize=1;strokeColor=none;fillColor=none;fontFamily=Helvetica;fontSize=12;fontColor=default;" parent="1" vertex="1">
          <mxGeometry x="669.8299999999999" y="1080" width="110" height="40" as="geometry" />
        </mxCell>
        <mxCell id="v32gDOaLkHWEdU6SIBLz-10" value="" style="line;strokeWidth=2;html=1;dashed=1;" parent="1" vertex="1">
          <mxGeometry x="679.8299999999999" y="1110" width="90" height="10" as="geometry" />
        </mxCell>
        <mxCell id="v32gDOaLkHWEdU6SIBLz-11" value="" style="endArrow=classic;html=1;rounded=0;fontFamily=Helvetica;fontSize=12;fontColor=default;autosize=1;resizable=0;edgeStyle=orthogonalEdgeStyle;exitX=0.5;exitY=1;exitDx=0;exitDy=0;" parent="1" source="ppYeGMJP4Vg2n3mMBXnk-294" target="ppYeGMJP4Vg2n3mMBXnk-305" edge="1">
          <mxGeometry width="50" height="50" relative="1" as="geometry">
            <mxPoint x="769.8299999999999" y="1130" as="sourcePoint" />
            <mxPoint x="819.8299999999999" y="1080" as="targetPoint" />
            <Array as="points">
              <mxPoint x="719.8299999999999" y="1120" />
              <mxPoint x="719.8299999999999" y="1130" />
              <mxPoint x="899.8299999999999" y="1130" />
              <mxPoint x="899.8299999999999" y="1240" />
              <mxPoint x="587.83" y="1240" />
            </Array>
          </mxGeometry>
        </mxCell>
        <mxCell id="v32gDOaLkHWEdU6SIBLz-13" value="&lt;font style=&quot;font-size: 18px;&quot;&gt;ID_C&lt;/font&gt;" style="text;html=1;align=center;verticalAlign=middle;resizable=0;points=[];autosize=1;strokeColor=none;fillColor=none;fontFamily=Helvetica;fontSize=12;fontColor=default;" parent="1" vertex="1">
          <mxGeometry x="749.8299999999999" y="890" width="60" height="40" as="geometry" />
        </mxCell>
        <mxCell id="v32gDOaLkHWEdU6SIBLz-14" value="" style="line;strokeWidth=2;html=1;dashed=1;" parent="1" vertex="1">
          <mxGeometry x="759.8299999999999" y="920" width="42.25" height="10" as="geometry" />
        </mxCell>
        <mxCell id="v32gDOaLkHWEdU6SIBLz-15" value="" style="endArrow=classic;html=1;rounded=0;fontFamily=Helvetica;fontSize=12;fontColor=default;autosize=1;resizable=0;edgeStyle=orthogonalEdgeStyle;exitX=0.85;exitY=0.998;exitDx=0;exitDy=0;exitPerimeter=0;entryX=0;entryY=0.5;entryDx=0;entryDy=0;" parent="1" source="ppYeGMJP4Vg2n3mMBXnk-264" target="ppYeGMJP4Vg2n3mMBXnk-284" edge="1">
          <mxGeometry width="50" height="50" relative="1" as="geometry">
            <mxPoint x="699.8299999999999" y="1010" as="sourcePoint" />
            <mxPoint x="749.8299999999999" y="960" as="targetPoint" />
            <Array as="points">
              <mxPoint x="777.8299999999999" y="930" />
              <mxPoint x="777.8299999999999" y="940" />
              <mxPoint x="509.83000000000004" y="940" />
              <mxPoint x="509.83000000000004" y="1000" />
            </Array>
          </mxGeometry>
        </mxCell>
        <mxCell id="v32gDOaLkHWEdU6SIBLz-16" value="&lt;font style=&quot;font-size: 18px;&quot;&gt;ID_W&lt;/font&gt;" style="text;html=1;align=center;verticalAlign=middle;resizable=0;points=[];autosize=1;strokeColor=none;fillColor=none;fontFamily=Helvetica;fontSize=12;fontColor=default;" parent="1" vertex="1">
          <mxGeometry x="819.8299999999999" y="890" width="70" height="40" as="geometry" />
        </mxCell>
        <mxCell id="v32gDOaLkHWEdU6SIBLz-17" value="" style="line;strokeWidth=2;html=1;dashed=1;" parent="1" vertex="1">
          <mxGeometry x="829.8299999999999" y="920" width="60" height="10" as="geometry" />
        </mxCell>
        <mxCell id="v32gDOaLkHWEdU6SIBLz-18" value="" style="endArrow=classic;html=1;rounded=0;fontFamily=Helvetica;fontSize=12;fontColor=default;autosize=1;resizable=0;edgeStyle=orthogonalEdgeStyle;exitX=0.512;exitY=0.979;exitDx=0;exitDy=0;exitPerimeter=0;entryX=0;entryY=0.5;entryDx=0;entryDy=0;" parent="1" source="v32gDOaLkHWEdU6SIBLz-16" target="ppYeGMJP4Vg2n3mMBXnk-294" edge="1">
          <mxGeometry width="50" height="50" relative="1" as="geometry">
            <mxPoint x="799.8299999999999" y="1090" as="sourcePoint" />
            <mxPoint x="849.8299999999999" y="1040" as="targetPoint" />
            <Array as="points">
              <mxPoint x="855.8299999999999" y="1030" />
              <mxPoint x="509.83000000000004" y="1030" />
              <mxPoint x="509.83000000000004" y="1100" />
            </Array>
          </mxGeometry>
        </mxCell>
        <mxCell id="v32gDOaLkHWEdU6SIBLz-19" value="&lt;font style=&quot;font-size: 18px;&quot;&gt;ID_W&lt;/font&gt;" style="text;html=1;align=center;verticalAlign=middle;resizable=0;points=[];autosize=1;strokeColor=none;fillColor=none;fontFamily=Helvetica;fontSize=12;fontColor=default;" parent="1" vertex="1">
          <mxGeometry x="779.8299999999999" y="1180" width="70" height="40" as="geometry" />
        </mxCell>
        <mxCell id="v32gDOaLkHWEdU6SIBLz-20" value="" style="line;strokeWidth=2;html=1;dashed=1;" parent="1" vertex="1">
          <mxGeometry x="789.8299999999999" y="1210" width="60" height="10" as="geometry" />
        </mxCell>
        <mxCell id="v32gDOaLkHWEdU6SIBLz-22" value="" style="endArrow=classic;html=1;rounded=0;fontFamily=Helvetica;fontSize=12;fontColor=default;autosize=1;resizable=0;edgeStyle=orthogonalEdgeStyle;exitX=0.852;exitY=-0.051;exitDx=0;exitDy=0;exitPerimeter=0;entryX=0.477;entryY=1.025;entryDx=0;entryDy=0;entryPerimeter=0;" parent="1" source="ppYeGMJP4Vg2n3mMBXnk-305" target="ppYeGMJP4Vg2n3mMBXnk-296" edge="1">
          <mxGeometry width="50" height="50" relative="1" as="geometry">
            <mxPoint x="779.8299999999999" y="1260" as="sourcePoint" />
            <mxPoint x="829.8299999999999" y="1210" as="targetPoint" />
            <Array as="points">
              <mxPoint x="812.8299999999999" y="1150" />
              <mxPoint x="562.83" y="1150" />
            </Array>
          </mxGeometry>
        </mxCell>
        <mxCell id="v32gDOaLkHWEdU6SIBLz-23" value="" style="line;strokeWidth=2;direction=south;html=1;" parent="1" vertex="1">
          <mxGeometry x="579.83" y="1470" width="10" height="40" as="geometry" />
        </mxCell>
        <mxCell id="v32gDOaLkHWEdU6SIBLz-24" value="" style="rounded=0;whiteSpace=wrap;html=1;fillColor=none;" parent="1" vertex="1">
          <mxGeometry x="519.83" y="1470" width="140" height="40" as="geometry" />
        </mxCell>
        <mxCell id="v32gDOaLkHWEdU6SIBLz-25" value="&lt;font style=&quot;font-size: 20px;&quot;&gt;&lt;b style=&quot;&quot;&gt;Patient_Consultant&lt;/b&gt;&lt;/font&gt;" style="text;html=1;align=center;verticalAlign=middle;resizable=0;points=[];autosize=1;strokeColor=none;fillColor=none;" parent="1" vertex="1">
          <mxGeometry x="479.83000000000004" y="1430" width="210" height="40" as="geometry" />
        </mxCell>
        <mxCell id="v32gDOaLkHWEdU6SIBLz-26" value="&lt;font style=&quot;font-size: 18px;&quot;&gt;ID_P&lt;/font&gt;" style="text;html=1;align=center;verticalAlign=middle;resizable=0;points=[];autosize=1;strokeColor=none;fillColor=none;" parent="1" vertex="1">
          <mxGeometry x="519.83" y="1470" width="60" height="40" as="geometry" />
        </mxCell>
        <mxCell id="v32gDOaLkHWEdU6SIBLz-29" value="&lt;font style=&quot;font-size: 18px;&quot;&gt;ID_C&lt;/font&gt;" style="text;html=1;align=center;verticalAlign=middle;resizable=0;points=[];autosize=1;strokeColor=none;fillColor=none;" parent="1" vertex="1">
          <mxGeometry x="589.83" y="1470" width="60" height="40" as="geometry" />
        </mxCell>
        <mxCell id="v32gDOaLkHWEdU6SIBLz-34" value="" style="line;strokeWidth=2;html=1;dashed=1;" parent="1" vertex="1">
          <mxGeometry x="509.90999999999997" y="1600" width="40" height="10" as="geometry" />
        </mxCell>
        <mxCell id="v32gDOaLkHWEdU6SIBLz-36" value="" style="line;strokeWidth=2;html=1;dashed=1;" parent="1" vertex="1">
          <mxGeometry x="599.83" y="1500" width="40" height="10" as="geometry" />
        </mxCell>
        <mxCell id="v32gDOaLkHWEdU6SIBLz-37" value="" style="line;strokeWidth=2;direction=south;html=1;" parent="1" vertex="1">
          <mxGeometry x="558.87" y="1570" width="10" height="40" as="geometry" />
        </mxCell>
        <mxCell id="v32gDOaLkHWEdU6SIBLz-38" value="" style="rounded=0;whiteSpace=wrap;html=1;fillColor=none;" parent="1" vertex="1">
          <mxGeometry x="499.90999999999997" y="1570" width="480" height="40" as="geometry" />
        </mxCell>
        <mxCell id="v32gDOaLkHWEdU6SIBLz-39" value="&lt;font style=&quot;font-size: 20px;&quot;&gt;&lt;b style=&quot;&quot;&gt;Patient_Nurse_Drug&lt;/b&gt;&lt;/font&gt;" style="text;html=1;align=center;verticalAlign=middle;resizable=0;points=[];autosize=1;strokeColor=none;fillColor=none;" parent="1" vertex="1">
          <mxGeometry x="489.90999999999997" y="1530" width="220" height="40" as="geometry" />
        </mxCell>
        <mxCell id="v32gDOaLkHWEdU6SIBLz-40" value="&lt;font style=&quot;font-size: 18px;&quot;&gt;ID_P&lt;/font&gt;" style="text;html=1;align=center;verticalAlign=middle;resizable=0;points=[];autosize=1;strokeColor=none;fillColor=none;" parent="1" vertex="1">
          <mxGeometry x="499.9100000000001" y="1570" width="60" height="40" as="geometry" />
        </mxCell>
        <mxCell id="v32gDOaLkHWEdU6SIBLz-42" value="" style="line;strokeWidth=2;direction=south;html=1;" parent="1" vertex="1">
          <mxGeometry x="669.91" y="1570" width="10" height="40" as="geometry" />
        </mxCell>
        <mxCell id="v32gDOaLkHWEdU6SIBLz-43" value="&lt;span style=&quot;font-size: 18px;&quot;&gt;Number_N&lt;/span&gt;" style="text;html=1;align=center;verticalAlign=middle;resizable=0;points=[];autosize=1;strokeColor=none;fillColor=none;" parent="1" vertex="1">
          <mxGeometry x="559.91" y="1570" width="110" height="40" as="geometry" />
        </mxCell>
        <mxCell id="v32gDOaLkHWEdU6SIBLz-45" value="" style="line;strokeWidth=2;direction=south;html=1;" parent="1" vertex="1">
          <mxGeometry x="759.91" y="1570" width="10" height="40" as="geometry" />
        </mxCell>
        <mxCell id="v32gDOaLkHWEdU6SIBLz-48" value="" style="line;strokeWidth=2;html=1;dashed=1;" parent="1" vertex="1">
          <mxGeometry x="679.91" y="1600" width="70" height="10" as="geometry" />
        </mxCell>
        <mxCell id="v32gDOaLkHWEdU6SIBLz-50" value="" style="line;strokeWidth=2;html=1;dashed=1;" parent="1" vertex="1">
          <mxGeometry x="569.91" y="1600" width="90" height="10" as="geometry" />
        </mxCell>
        <mxCell id="v32gDOaLkHWEdU6SIBLz-52" value="" style="endArrow=classic;html=1;rounded=0;fontFamily=Helvetica;fontSize=12;fontColor=default;autosize=1;resizable=0;edgeStyle=orthogonalEdgeStyle;exitX=-0.008;exitY=0.546;exitDx=0;exitDy=0;exitPerimeter=0;entryX=0;entryY=0.25;entryDx=0;entryDy=0;" parent="1" source="v32gDOaLkHWEdU6SIBLz-26" target="ppYeGMJP4Vg2n3mMBXnk-264" edge="1">
          <mxGeometry width="50" height="50" relative="1" as="geometry">
            <mxPoint x="719.8299999999999" y="1380" as="sourcePoint" />
            <mxPoint x="769.8299999999999" y="1330" as="targetPoint" />
            <Array as="points">
              <mxPoint x="379.90999999999997" y="1492" />
              <mxPoint x="379.90999999999997" y="900" />
            </Array>
          </mxGeometry>
        </mxCell>
        <mxCell id="v32gDOaLkHWEdU6SIBLz-53" value="" style="endArrow=classic;html=1;rounded=0;fontFamily=Helvetica;fontSize=12;fontColor=default;autosize=1;resizable=0;edgeStyle=orthogonalEdgeStyle;exitX=0.75;exitY=1;exitDx=0;exitDy=0;entryX=0;entryY=0.75;entryDx=0;entryDy=0;" parent="1" source="v32gDOaLkHWEdU6SIBLz-24" target="ppYeGMJP4Vg2n3mMBXnk-284" edge="1">
          <mxGeometry width="50" height="50" relative="1" as="geometry">
            <mxPoint x="769.8299999999999" y="1400" as="sourcePoint" />
            <mxPoint x="819.8299999999999" y="1350" as="targetPoint" />
            <Array as="points">
              <mxPoint x="624.83" y="1520" />
              <mxPoint x="439.83000000000004" y="1520" />
              <mxPoint x="439.83000000000004" y="1010" />
            </Array>
          </mxGeometry>
        </mxCell>
        <mxCell id="v32gDOaLkHWEdU6SIBLz-54" value="&lt;font style=&quot;font-size: 18px;&quot;&gt;Code_D&lt;/font&gt;" style="text;html=1;align=center;verticalAlign=middle;resizable=0;points=[];autosize=1;strokeColor=none;fillColor=none;fontFamily=Helvetica;fontSize=12;fontColor=default;" parent="1" vertex="1">
          <mxGeometry x="669.91" y="1570" width="90" height="40" as="geometry" />
        </mxCell>
        <mxCell id="v32gDOaLkHWEdU6SIBLz-56" value="&lt;font style=&quot;font-size: 18px;&quot;&gt;Dosage&lt;/font&gt;" style="text;html=1;align=center;verticalAlign=middle;resizable=0;points=[];autosize=1;strokeColor=none;fillColor=none;fontFamily=Helvetica;fontSize=12;fontColor=default;" parent="1" vertex="1">
          <mxGeometry x="829.91" y="1570" width="90" height="40" as="geometry" />
        </mxCell>
        <mxCell id="v32gDOaLkHWEdU6SIBLz-57" value="&lt;font style=&quot;font-size: 18px;&quot;&gt;Date&lt;/font&gt;" style="text;html=1;align=center;verticalAlign=middle;resizable=0;points=[];autosize=1;strokeColor=none;fillColor=none;fontFamily=Helvetica;fontSize=12;fontColor=default;" parent="1" vertex="1">
          <mxGeometry x="919.91" y="1570" width="60" height="40" as="geometry" />
        </mxCell>
        <mxCell id="v32gDOaLkHWEdU6SIBLz-58" value="&lt;font style=&quot;font-size: 18px;&quot;&gt;Time&lt;/font&gt;" style="text;html=1;align=center;verticalAlign=middle;resizable=0;points=[];autosize=1;strokeColor=none;fillColor=none;fontFamily=Helvetica;fontSize=12;fontColor=default;" parent="1" vertex="1">
          <mxGeometry x="769.91" y="1570" width="60" height="40" as="geometry" />
        </mxCell>
        <mxCell id="v32gDOaLkHWEdU6SIBLz-59" value="" style="endArrow=classic;html=1;rounded=0;fontFamily=Helvetica;fontSize=12;fontColor=default;autosize=1;resizable=0;edgeStyle=orthogonalEdgeStyle;exitX=0.25;exitY=1;exitDx=0;exitDy=0;entryX=0;entryY=0.5;entryDx=0;entryDy=0;" parent="1" source="v32gDOaLkHWEdU6SIBLz-38" target="ppYeGMJP4Vg2n3mMBXnk-305" edge="1">
          <mxGeometry width="50" height="50" relative="1" as="geometry">
            <mxPoint x="749.91" y="1400" as="sourcePoint" />
            <mxPoint x="799.91" y="1350" as="targetPoint" />
            <Array as="points">
              <mxPoint x="619.91" y="1630" />
              <mxPoint x="329.90999999999997" y="1630" />
              <mxPoint x="329.90999999999997" y="1200" />
            </Array>
          </mxGeometry>
        </mxCell>
        <mxCell id="v32gDOaLkHWEdU6SIBLz-60" value="" style="endArrow=classic;html=1;rounded=0;fontFamily=Helvetica;fontSize=12;fontColor=default;autosize=1;resizable=0;edgeStyle=orthogonalEdgeStyle;exitX=-0.001;exitY=0.548;exitDx=0;exitDy=0;exitPerimeter=0;entryX=0.001;entryY=0.567;entryDx=0;entryDy=0;entryPerimeter=0;" parent="1" source="v32gDOaLkHWEdU6SIBLz-38" target="ppYeGMJP4Vg2n3mMBXnk-264" edge="1">
          <mxGeometry width="50" height="50" relative="1" as="geometry">
            <mxPoint x="889.91" y="1360" as="sourcePoint" />
            <mxPoint x="939.91" y="1310" as="targetPoint" />
            <Array as="points">
              <mxPoint x="279.90999999999997" y="1592" />
              <mxPoint x="279.90999999999997" y="913" />
            </Array>
          </mxGeometry>
        </mxCell>
        <mxCell id="v32gDOaLkHWEdU6SIBLz-61" value="" style="endArrow=classic;html=1;rounded=0;fontFamily=Helvetica;fontSize=12;fontColor=default;autosize=1;resizable=0;edgeStyle=orthogonalEdgeStyle;" parent="1" edge="1">
          <mxGeometry width="50" height="50" relative="1" as="geometry">
            <mxPoint x="729.91" y="1570" as="sourcePoint" />
            <mxPoint x="572.91" y="1320" as="targetPoint" />
            <Array as="points">
              <mxPoint x="729.91" y="1570" />
              <mxPoint x="729.91" y="1340" />
              <mxPoint x="572.91" y="1340" />
            </Array>
          </mxGeometry>
        </mxCell>
        <mxCell id="v32gDOaLkHWEdU6SIBLz-62" value="" style="line;strokeWidth=2;html=1;dashed=1;" parent="1" vertex="1">
          <mxGeometry x="530" y="1500" width="40" height="10" as="geometry" />
        </mxCell>
        <mxCell id="FUXUlrzCRbP-cXIe2mHO-44" value="" style="line;strokeWidth=2;direction=south;html=1;" parent="1" vertex="1">
          <mxGeometry x="360" y="250" width="10" height="40" as="geometry" />
        </mxCell>
        <mxCell id="FUXUlrzCRbP-cXIe2mHO-45" value="" style="rounded=0;whiteSpace=wrap;html=1;fillColor=none;" parent="1" vertex="1">
          <mxGeometry x="280" y="250" width="220" height="40" as="geometry" />
        </mxCell>
        <mxCell id="FUXUlrzCRbP-cXIe2mHO-46" value="&lt;font style=&quot;font-size: 20px;&quot;&gt;&lt;b style=&quot;&quot;&gt;Emp_Qualifications&lt;/b&gt;&lt;/font&gt;" style="text;html=1;align=center;verticalAlign=middle;resizable=0;points=[];autosize=1;strokeColor=none;fillColor=none;" parent="1" vertex="1">
          <mxGeometry x="260" y="210" width="210" height="40" as="geometry" />
        </mxCell>
        <mxCell id="FUXUlrzCRbP-cXIe2mHO-48" value="route-dotnet-tasks" style="line;strokeWidth=4;html=1;perimeter=backbonePerimeter;points=[];outlineConnect=0;" parent="1" vertex="1">
          <mxGeometry x="280" y="290" width="210" height="10" as="geometry" />
        </mxCell>
        <mxCell id="FUXUlrzCRbP-cXIe2mHO-64" value="" style="line;strokeWidth=2;html=1;dashed=1;" parent="1" vertex="1">
          <mxGeometry x="290" y="280" width="70" height="10" as="geometry" />
        </mxCell>
        <mxCell id="FUXUlrzCRbP-cXIe2mHO-66" value="&lt;font style=&quot;font-size: 18px;&quot;&gt;ID_Emp&lt;/font&gt;" style="text;html=1;align=center;verticalAlign=middle;resizable=0;points=[];autosize=1;strokeColor=none;fillColor=none;" parent="1" vertex="1">
          <mxGeometry x="270" y="250" width="90" height="40" as="geometry" />
        </mxCell>
        <mxCell id="FUXUlrzCRbP-cXIe2mHO-67" value="&lt;font style=&quot;font-size: 20px;&quot;&gt;Qualifications&lt;/font&gt;" style="text;html=1;align=center;verticalAlign=middle;resizable=0;points=[];autosize=1;strokeColor=none;fillColor=none;" parent="1" vertex="1">
          <mxGeometry x="360" y="250" width="140" height="40" as="geometry" />
        </mxCell>
        <mxCell id="FUXUlrzCRbP-cXIe2mHO-70" value="" style="line;strokeWidth=2;direction=south;html=1;" parent="1" vertex="1">
          <mxGeometry x="350" y="350" width="10" height="40" as="geometry" />
        </mxCell>
        <mxCell id="FUXUlrzCRbP-cXIe2mHO-71" value="" style="rounded=0;whiteSpace=wrap;html=1;fillColor=none;" parent="1" vertex="1">
          <mxGeometry x="270" y="350" width="180" height="40" as="geometry" />
        </mxCell>
        <mxCell id="FUXUlrzCRbP-cXIe2mHO-72" value="&lt;font style=&quot;font-size: 20px;&quot;&gt;&lt;b style=&quot;&quot;&gt;Airline_Phones&lt;/b&gt;&lt;/font&gt;" style="text;html=1;align=center;verticalAlign=middle;resizable=0;points=[];autosize=1;strokeColor=none;fillColor=none;" parent="1" vertex="1">
          <mxGeometry x="260" y="310" width="170" height="40" as="geometry" />
        </mxCell>
        <mxCell id="FUXUlrzCRbP-cXIe2mHO-73" value="" style="line;strokeWidth=4;html=1;perimeter=backbonePerimeter;points=[];outlineConnect=0;" parent="1" vertex="1">
          <mxGeometry x="270" y="390" width="170" height="10" as="geometry" />
        </mxCell>
        <mxCell id="FUXUlrzCRbP-cXIe2mHO-74" value="" style="line;strokeWidth=2;html=1;dashed=1;" parent="1" vertex="1">
          <mxGeometry x="280" y="380" width="60" height="10" as="geometry" />
        </mxCell>
        <mxCell id="FUXUlrzCRbP-cXIe2mHO-75" value="&lt;font style=&quot;font-size: 18px;&quot;&gt;ID_A&lt;/font&gt;" style="text;html=1;align=center;verticalAlign=middle;resizable=0;points=[];autosize=1;strokeColor=none;fillColor=none;" parent="1" vertex="1">
          <mxGeometry x="275" y="350" width="60" height="40" as="geometry" />
        </mxCell>
        <mxCell id="FUXUlrzCRbP-cXIe2mHO-76" value="&lt;font style=&quot;font-size: 20px;&quot;&gt;Phone&lt;/font&gt;" style="text;html=1;align=center;verticalAlign=middle;resizable=0;points=[];autosize=1;strokeColor=none;fillColor=none;" parent="1" vertex="1">
          <mxGeometry x="360" y="350" width="80" height="40" as="geometry" />
        </mxCell>
        <mxCell id="FUXUlrzCRbP-cXIe2mHO-77" value="" style="endArrow=classic;html=1;rounded=0;edgeStyle=orthogonalEdgeStyle;exitX=0;exitY=0.5;exitDx=0;exitDy=0;entryX=0;entryY=0.5;entryDx=0;entryDy=0;" parent="1" source="FUXUlrzCRbP-cXIe2mHO-71" target="ppYeGMJP4Vg2n3mMBXnk-140" edge="1">
          <mxGeometry width="50" height="50" relative="1" as="geometry">
            <mxPoint x="400" y="320" as="sourcePoint" />
            <mxPoint x="450" y="270" as="targetPoint" />
            <Array as="points">
              <mxPoint x="100" y="370" />
              <mxPoint x="100" y="80" />
            </Array>
          </mxGeometry>
        </mxCell>
        <mxCell id="FUXUlrzCRbP-cXIe2mHO-78" value="" style="endArrow=classic;html=1;rounded=0;edgeStyle=orthogonalEdgeStyle;entryX=0;entryY=0.5;entryDx=0;entryDy=0;entryPerimeter=0;" parent="1" target="ppYeGMJP4Vg2n3mMBXnk-154" edge="1">
          <mxGeometry width="50" height="50" relative="1" as="geometry">
            <mxPoint x="280" y="271" as="sourcePoint" />
            <mxPoint x="410" y="240" as="targetPoint" />
            <Array as="points">
              <mxPoint x="250" y="271" />
              <mxPoint x="250" y="180" />
            </Array>
          </mxGeometry>
        </mxCell>
        <mxCell id="Q9uoVcJ2EinHmf0IrFub-1" value="" style="line;strokeWidth=4;html=1;perimeter=backbonePerimeter;points=[];outlineConnect=0;" vertex="1" parent="1">
          <mxGeometry x="280" y="790" width="210" height="10" as="geometry" />
        </mxCell>
        <mxCell id="Q9uoVcJ2EinHmf0IrFub-2" value="" style="line;strokeWidth=4;html=1;perimeter=backbonePerimeter;points=[];outlineConnect=0;" vertex="1" parent="1">
          <mxGeometry x="520" y="1510" width="140" height="10" as="geometry" />
        </mxCell>
        <mxCell id="Q9uoVcJ2EinHmf0IrFub-3" value="" style="line;strokeWidth=4;html=1;perimeter=backbonePerimeter;points=[];outlineConnect=0;fontStyle=1" vertex="1" parent="1">
          <mxGeometry x="500" y="1610" width="330" height="10" as="geometry" />
        </mxCell>
        <mxCell id="Q9uoVcJ2EinHmf0IrFub-4" value="" style="line;strokeWidth=4;html=1;perimeter=backbonePerimeter;points=[];outlineConnect=0;" vertex="1" parent="1">
          <mxGeometry x="540" y="1420" width="150" height="10" as="geometry" />
        </mxCell>
        <mxCell id="Q9uoVcJ2EinHmf0IrFub-5" value="" style="line;strokeWidth=4;html=1;perimeter=backbonePerimeter;points=[];outlineConnect=0;" vertex="1" parent="1">
          <mxGeometry x="400" y="2320" width="140" height="10" as="geometry" />
        </mxCell>
        <mxCell id="Q9uoVcJ2EinHmf0IrFub-6" value="" style="line;strokeWidth=4;html=1;perimeter=backbonePerimeter;points=[];outlineConnect=0;" vertex="1" parent="1">
          <mxGeometry x="400" y="2420" width="160" height="10" as="geometry" />
        </mxCell>
        <mxCell id="Q9uoVcJ2EinHmf0IrFub-7" value="" style="line;strokeWidth=4;html=1;perimeter=backbonePerimeter;points=[];outlineConnect=0;" vertex="1" parent="1">
          <mxGeometry x="370" y="3080" width="160" height="10" as="geometry" />
        </mxCell>
        <mxCell id="Q9uoVcJ2EinHmf0IrFub-8" value="" style="line;strokeWidth=4;html=1;perimeter=backbonePerimeter;points=[];outlineConnect=0;" vertex="1" parent="1">
          <mxGeometry x="370" y="3980" width="120" height="10" as="geometry" />
        </mxCell>
        <mxCell id="Q9uoVcJ2EinHmf0IrFub-9" value="" style="line;strokeWidth=4;html=1;perimeter=backbonePerimeter;points=[];outlineConnect=0;" vertex="1" parent="1">
          <mxGeometry x="370" y="4090" width="150" height="10" as="geometry" />
        </mxCell>
      </root>
    </mxGraphModel>
  </diagram>
</mxfile>
